<svg width="18" height="18" viewBox="0 0 18 18" fill="none" xmlns="http://www.w3.org/2000/svg">
<path fill-rule="evenodd" clip-rule="evenodd" d="M0 9C0 16.4115 1.5885 18 9 18C16.4115 18 18 16.4115 18 9C18 8.55114 17.9942 8.12364 17.9816 7.71656C17.9778 7.59564 17.8784 7.5 17.7575 7.5H0.242527C0.121555 7.5 0.0221601 7.59564 0.0184196 7.71656C0.00582633 8.12364 0 8.55114 0 9ZM13.5 14.25C13.9142 14.25 14.25 13.9142 14.25 13.5C14.25 13.0858 13.9142 12.75 13.5 12.75H10.5C10.0858 12.75 9.75 13.0858 9.75 13.5C9.75 13.9142 10.0858 14.25 10.5 14.25H13.5Z" fill="white"/>
<path d="M0.420636 4.2269C0.385804 4.36625 0.492626 4.5 0.636258 4.5H17.3637C17.5074 4.5 17.6142 4.36625 17.5794 4.2269C16.7361 0.853276 14.432 0 9 0C3.56803 0 1.26394 0.853276 0.420636 4.2269Z" fill="white"/>
</svg>
