<svg width="38" height="38" viewBox="0 0 38 38" fill="none" xmlns="http://www.w3.org/2000/svg">
<circle cx="19" cy="19" r="19" fill="#23252F"/>
<path d="M10.6094 13.75H27.3906V24.25H10.6094V13.75Z" fill="#4A7AFF"/>
<path d="M18.9805 13.75H27.3901V24.25H18.9805V13.75Z" fill="#0053BF"/>
<path d="M27.3906 13.75H25.3582L19.0001 17.7282L12.642 13.75H10.6094V15.0218L16.9675 19L10.6094 22.9782V24.25H12.642L19.0001 20.2718L25.3582 24.25H27.3906V22.9781L21.0326 19L27.3906 15.0219V13.75Z" fill="#FA5D0F"/>
<path d="M27.3901 13.75H25.3577L18.9995 17.7282L18.9805 17.7163V20.2837L18.9995 20.2718L25.3576 24.25H27.3901V22.9781L21.032 19L27.3901 15.0219V13.75Z" fill="#D13400"/>
<path d="M27.3906 17.6875H20.3125V13.75H17.6875V17.6875H10.6094V20.3125H17.6875V24.25H20.3125V20.3125H27.3906V17.6875Z" fill="#FA5D0F"/>
<path d="M20.312 17.6875V13.75H18.9805V24.25H20.312V20.3125H27.3901V17.6875H20.312Z" fill="#D13400"/>
<path d="M17.3125 13.75V16.23L13.3489 13.75H11.935L17.3125 17.1147V17.3125H14.9775L10.6094 14.5794V15.4641L13.5635 17.3125H10.6094V18.0625H18.0625V13.75H17.3125Z" fill="white"/>
<path d="M10.6094 20.6875H13.5635L10.6094 22.5359V23.4206L14.9775 20.6875H17.3125V20.8853L11.935 24.25H13.3489L17.3125 21.77V24.25H18.0625V19.9375H10.6094V20.6875Z" fill="white"/>
<path d="M27.3906 14.5795L23.0227 17.3125H20.6875V17.1148L26.0652 13.75H24.6512L20.6875 16.2301V13.75H19.9375V18.0625H27.3906V17.3125H24.4366L27.3906 15.4642V14.5795Z" fill="#E9EDF5"/>
<path d="M19.9375 24.25H20.6875V21.7699L24.6512 24.25H26.0651L20.6875 20.8852V20.6875H23.0226L27.3906 23.4205V22.5358L24.4366 20.6875H27.3906V19.9375H19.9375V24.25Z" fill="#E9EDF5"/>
</svg>
