<svg width="1920" height="32" viewBox="0 0 1920 32" fill="none" xmlns="http://www.w3.org/2000/svg">
<g clip-path="url(#clip0_2877_6623)">
<path d="M6.08755 11.814C8.24796 11.814 9.99932 10.0647 9.99932 7.90698C9.99932 5.74921 8.24796 4 6.08755 4C3.92714 4 2.17578 5.74921 2.17578 7.90698C2.17578 10.0647 3.92714 11.814 6.08755 11.814Z" fill="#5E647A"/>
<path fill-rule="evenodd" clip-rule="evenodd" d="M3.98377 6.78403V8.59756C3.98377 9.02451 3.99192 9.07737 4.25247 9.10584L4.36239 9.11804C4.38682 9.13837 4.37868 9.20749 4.35425 9.21969C4.12219 9.21156 3.98784 9.20749 3.825 9.20749C3.65401 9.20749 3.50744 9.21156 3.32831 9.21969C3.30388 9.20749 3.29574 9.14243 3.32017 9.11804L3.40566 9.10584C3.64179 9.07331 3.64994 9.02451 3.64994 8.59756V7.09713C3.64994 6.7515 3.64179 6.68238 3.45859 6.66205L3.31203 6.64578C3.28353 6.62138 3.2876 6.56039 3.32017 6.54413C3.53594 6.51566 3.78836 6.5116 4.12627 6.5116C4.46417 6.5116 4.71659 6.55633 4.90793 6.67425C5.09521 6.79217 5.23363 7.00361 5.23363 7.28418C5.23363 7.65827 5.00157 7.84531 4.82651 7.9307C4.64738 8.01609 4.4316 8.05269 4.26469 8.05269C4.23619 8.04049 4.23619 7.9795 4.26061 7.97137C4.7003 7.89004 4.85908 7.642 4.85908 7.28824C4.85908 6.89382 4.62702 6.63765 4.20362 6.63765C3.98784 6.63765 3.98377 6.65391 3.98377 6.78403ZM6.48348 7.18252L6.9476 8.12182C7.04124 8.31293 7.1308 8.49997 7.22851 8.67889H7.23666C7.34658 8.48777 7.44836 8.27633 7.55014 8.06895L7.93283 7.29231C8.11603 6.92228 8.2341 6.69864 8.24224 6.5116C8.38066 6.5238 8.46616 6.5238 8.54758 6.5238C8.64936 6.5238 8.78371 6.51973 8.90992 6.5116C8.93434 6.52786 8.93434 6.59699 8.91399 6.61325L8.82849 6.62138C8.57201 6.64578 8.53944 6.72304 8.54351 7.00767C8.55165 7.43869 8.55572 8.19094 8.58829 8.77647C8.6005 8.97978 8.59643 9.08957 8.78778 9.10584L8.91806 9.11804C8.94249 9.14243 8.93841 9.20343 8.90992 9.21969C8.743 9.21156 8.57608 9.20749 8.42952 9.20749C8.28702 9.20749 8.10382 9.21156 7.9369 9.21969C7.9084 9.19936 7.90433 9.14243 7.92876 9.11804L8.04682 9.10584C8.24631 9.08551 8.24631 9.02045 8.24631 8.76021L8.2341 7.0646H8.22596C8.19746 7.10933 8.04275 7.43463 7.96133 7.59321L7.59899 8.30479C7.41579 8.66262 7.23258 9.04484 7.1593 9.23189C7.15116 9.24409 7.13488 9.24815 7.11859 9.24815C7.11045 9.24815 7.09009 9.24409 7.08195 9.23189C7.01274 9.01638 6.81732 8.61789 6.72369 8.41865L6.35728 7.63387C6.27178 7.44682 6.18629 7.23538 6.09672 7.04834H6.08858C6.07229 7.30044 6.06008 7.53628 6.04787 7.77212C6.03565 8.02016 6.01937 8.38205 6.01937 8.72768C6.01937 9.02858 6.0438 9.09364 6.20257 9.10584L6.35728 9.11804C6.38578 9.14243 6.38171 9.20749 6.35321 9.21969C6.21479 9.21156 6.05601 9.20749 5.9013 9.20749C5.77103 9.20749 5.62446 9.21156 5.48604 9.21969C5.46162 9.19936 5.45347 9.13837 5.4779 9.11804L5.56747 9.10584C5.73846 9.08144 5.79545 9.05704 5.81988 8.77241C5.84431 8.50404 5.86466 8.2804 5.88909 7.87784C5.90945 7.54035 5.92573 7.19472 5.93387 6.97108C5.94202 6.71491 5.90945 6.65391 5.6611 6.62138L5.59597 6.61325C5.57561 6.58885 5.57968 6.52786 5.61225 6.5116C5.73439 6.51973 5.83209 6.5238 5.93387 6.5238C6.02751 6.5238 6.13743 6.5238 6.27178 6.5116C6.2555 6.67018 6.35728 6.92228 6.48348 7.18252Z" fill="#5E647A"/>
</g>
<path fill-rule="evenodd" clip-rule="evenodd" d="M78.7903 18.3408C77.4026 23.8793 71.7653 27.25 66.1987 25.8688C60.6344 24.488 57.2471 18.8781 58.6354 13.3399C60.0224 7.80075 65.6598 4.42977 71.2247 5.8106C76.7909 7.19143 80.1779 12.802 78.7903 18.3408Z" fill="#5E647A"/>
<path d="M73.2945 14.367C73.5013 12.9913 72.4487 12.2518 71.0094 11.7585L71.4763 9.89498L70.3364 9.61228L69.8818 11.4267C69.5822 11.3524 69.2744 11.2823 68.9685 11.2128L69.4263 9.38645L68.287 9.10376L67.8198 10.9666C67.5718 10.9104 67.3283 10.8548 67.0919 10.7964L67.0932 10.7905L65.5211 10.3999L65.2179 11.6115C65.2179 11.6115 66.0637 11.8044 66.0458 11.8163C66.5075 11.931 66.5909 12.235 66.577 12.476L66.0451 14.599C66.077 14.6071 66.1182 14.6187 66.1637 14.6368C66.1257 14.6274 66.0851 14.6171 66.0432 14.6071L65.2977 17.581C65.2412 17.7205 65.0981 17.9299 64.7753 17.8504C64.7867 17.8669 63.9468 17.6446 63.9468 17.6446L63.3809 18.9431L64.8643 19.3111C65.1403 19.3799 65.4107 19.4519 65.677 19.5198L65.2052 21.4046L66.3438 21.6873L66.8111 19.8225C67.1221 19.9065 67.424 19.984 67.7195 20.057L67.2539 21.9131L68.3938 22.1958L68.8656 20.3145C70.8094 20.6806 72.2711 20.5329 72.8864 18.7835C73.3822 17.3749 72.8617 16.5623 71.839 16.0325C72.5838 15.8616 73.1448 15.374 73.2945 14.367ZM70.69 18.0013C70.3377 19.4099 67.9542 18.6484 67.1815 18.4575L67.8075 15.9604C68.5802 16.1523 71.0581 16.5323 70.69 18.0013ZM71.0425 14.3467C70.7211 15.628 68.7374 14.977 68.0938 14.8174L68.6614 12.5526C69.3049 12.7122 71.3773 13.0101 71.0425 14.3467Z" fill="#23252F"/>
<path d="M88.7717 11.7565C89.6142 11.7565 90.3421 11.9067 90.9538 12.2017C91.5684 12.4995 92.0756 12.9008 92.4824 13.4054C92.8837 13.9127 93.1824 14.5055 93.3752 15.1849C93.5668 15.8663 93.6629 16.5987 93.6629 17.3828C93.6629 18.5873 93.4412 19.7251 92.9934 20.7978C92.5457 21.872 91.9382 22.8037 91.1655 23.5985C90.3934 24.3923 89.4817 25.0181 88.4304 25.4804C87.3808 25.9431 86.2395 26.1744 85.0142 26.1744C84.8558 26.1744 84.5772 26.1699 84.1837 26.1618C83.7902 26.1537 83.3379 26.1133 82.8314 26.0452C82.3217 25.9744 81.7827 25.8697 81.2136 25.7295C80.6447 25.5919 80.1045 25.399 79.5957 25.1541L84.1451 6.13266L88.2197 5.50427L86.5908 12.2543C86.9395 12.0979 87.2908 11.9768 87.6415 11.8886C87.9925 11.8017 88.3691 11.7565 88.7717 11.7565ZM85.3538 22.9579C85.9675 22.9579 86.5457 22.8076 87.0889 22.5127C87.6337 22.2174 88.1038 21.8187 88.4977 21.3221C88.8915 20.8233 89.2032 20.2615 89.4304 19.6337C89.6577 19.006 89.7727 18.3511 89.7727 17.6697C89.7727 16.8326 89.6321 16.1797 89.3519 15.7077C89.0717 15.2376 88.5532 15.0011 87.8003 15.0011C87.5535 15.0011 87.2356 15.048 86.8415 15.1316C86.446 15.2205 86.0921 15.405 85.7749 15.6825L84.0405 22.8509C84.1451 22.8693 84.2376 22.8868 84.3165 22.9033C84.3938 22.921 84.4791 22.9336 84.5642 22.9424C84.6541 22.9524 84.7571 22.9575 84.8814 22.9575C85.0058 22.9575 85.1613 22.9579 85.3538 22.9579Z" fill="#5E647A"/>
<path d="M97.888 25.8103H93.9961L97.2828 12.0482H101.201L97.888 25.8103ZM99.7818 10.3714C99.2386 10.3714 98.7461 10.2105 98.3091 9.8881C97.8685 9.56761 97.6503 9.07427 97.6503 8.40938C97.6503 8.04365 97.725 7.70055 97.873 7.37682C98.0234 7.05375 98.2198 6.77558 98.4659 6.53909C98.7117 6.30453 98.9964 6.11715 99.3198 5.97596C99.6451 5.83704 99.9912 5.76758 100.36 5.76758C100.903 5.76758 101.393 5.92847 101.831 6.2509C102.268 6.57495 102.488 7.06829 102.488 7.72962C102.488 8.09664 102.414 8.44104 102.265 8.76412C102.116 9.08719 101.92 9.36536 101.674 9.60185C101.43 9.83673 101.143 10.0235 100.82 10.1634C100.494 10.3045 100.149 10.3714 99.7818 10.3714Z" fill="#5E647A"/>
<path fill-rule="evenodd" clip-rule="evenodd" d="M104.612 8.61947L108.688 7.99109L107.687 12.0476H112.053L111.265 15.239H106.925L105.769 20.0528C105.663 20.4541 105.603 20.8289 105.586 21.1772C105.567 21.527 105.611 21.8275 105.716 22.0805C105.821 22.3341 106.009 22.5296 106.281 22.6678C106.553 22.8084 106.942 22.8791 107.451 22.8791C107.871 22.8791 108.28 22.8394 108.676 22.7606C109.069 22.683 109.467 22.5751 109.87 22.4339L110.161 25.4179C109.635 25.6098 109.065 25.7749 108.452 25.9138C107.837 26.0546 107.109 26.1225 106.268 26.1225C105.059 26.1225 104.122 25.9438 103.454 25.5881C102.787 25.2298 102.316 24.7404 102.034 24.1207C101.755 23.5033 101.631 22.7916 101.666 21.9897C101.702 21.1859 101.824 20.341 102.034 19.4513L104.612 8.61947Z" fill="#5E647A"/>
<path fill-rule="evenodd" clip-rule="evenodd" d="M111.881 20.3148C111.881 19.1294 112.074 18.0115 112.459 16.9651C112.844 15.9177 113.398 15.0018 114.117 14.2157C114.834 13.4335 115.707 12.8139 116.734 12.359C117.757 11.9067 118.902 11.6786 120.164 11.6786C120.954 11.6786 121.66 11.7529 122.281 11.9018C122.904 12.0521 123.468 12.2462 123.978 12.4898L122.636 15.5268C122.285 15.3853 121.921 15.2605 121.545 15.1475C121.168 15.0321 120.708 14.9766 120.165 14.9766C118.866 14.9766 117.839 15.4221 117.074 16.3102C116.313 17.199 115.93 18.3954 115.93 19.896C115.93 20.7855 116.122 21.5047 116.509 22.0548C116.894 22.6051 117.606 22.8787 118.639 22.8787C119.148 22.8787 119.64 22.8257 120.111 22.7223C120.586 22.6177 121.005 22.4858 121.374 22.3301L121.665 25.4433C121.173 25.6333 120.63 25.8048 120.034 25.955C119.438 26.1001 118.727 26.1754 117.904 26.1754C116.816 26.1754 115.896 26.0171 115.143 25.7053C114.39 25.3887 113.767 24.9684 113.277 24.4359C112.784 23.9022 112.43 23.279 112.211 22.5637C111.993 21.8491 111.881 21.0982 111.881 20.3148Z" fill="#5E647A"/>
<path d="M129.17 26.1754C128.241 26.1754 127.435 26.0345 126.75 25.7557C126.068 25.4769 125.502 25.0856 125.055 24.5784C124.608 24.0738 124.273 23.4757 124.043 22.7866C123.814 22.0978 123.703 21.335 123.703 20.4992C123.703 19.4509 123.872 18.4028 124.214 17.3576C124.554 16.3102 125.059 15.3691 125.727 14.5327C126.39 13.6949 127.208 13.01 128.171 12.4759C129.133 11.9455 130.24 11.6786 131.483 11.6786C132.395 11.6786 133.197 11.8198 133.891 12.0986C134.582 12.3768 135.151 12.7712 135.6 13.2759C136.045 13.7831 136.383 14.3785 136.61 15.0686C136.839 15.7561 136.952 16.5209 136.952 17.3573C136.952 18.4025 136.785 19.4505 136.454 20.4989C136.123 21.5421 135.631 22.4855 134.981 23.3239C134.333 24.1603 133.523 24.8449 132.55 25.3767C131.577 25.9085 130.45 26.1754 129.17 26.1754ZM131.115 14.9769C130.539 14.9769 130.028 15.1436 129.592 15.4728C129.153 15.8059 128.785 16.2246 128.489 16.7296C128.189 17.2368 127.966 17.7899 127.816 18.3912C127.667 18.9937 127.594 19.5633 127.594 20.1044C127.594 20.9777 127.735 21.6578 128.014 22.1472C128.296 22.6341 128.802 22.879 129.539 22.879C130.118 22.879 130.626 22.7136 131.065 22.3808C131.501 22.0503 131.869 21.6313 132.168 21.1254C132.466 20.6207 132.69 20.066 132.841 19.4638C132.988 18.8632 133.063 18.2904 133.063 17.7502C133.063 16.8792 132.922 16.1975 132.641 15.7087C132.361 15.2218 131.852 14.9769 131.115 14.9769Z" fill="#5E647A"/>
<path d="M141.192 25.8103H137.297L140.584 12.0482H144.504L141.192 25.8103ZM143.083 10.3714C142.54 10.3714 142.048 10.2105 141.611 9.8881C141.173 9.56761 140.953 9.07427 140.953 8.40938C140.953 8.04365 141.029 7.70055 141.177 7.37682C141.325 7.05375 141.523 6.77558 141.769 6.53909C142.014 6.30453 142.301 6.11715 142.624 5.97596C142.947 5.83704 143.293 5.76758 143.661 5.76758C144.205 5.76758 144.697 5.92847 145.134 6.2509C145.572 6.57495 145.793 7.06829 145.793 7.72962C145.793 8.09664 145.715 8.44104 145.568 8.76412C145.421 9.08719 145.223 9.36536 144.978 9.60185C144.731 9.83673 144.447 10.0235 144.124 10.1634C143.798 10.3045 143.452 10.3714 143.083 10.3714Z" fill="#5E647A"/>
<path fill-rule="evenodd" clip-rule="evenodd" d="M147.31 12.674C147.606 12.5881 147.936 12.4847 148.294 12.3723C148.655 12.2598 149.057 12.1552 149.506 12.0608C149.951 11.9636 150.452 11.8847 151.004 11.8237C151.556 11.7613 152.184 11.731 152.882 11.731C154.935 11.731 156.35 12.3257 157.131 13.5118C157.912 14.6978 158.047 16.3209 157.54 18.3783L155.75 25.809H151.832L153.568 18.5346C153.673 18.0804 153.756 17.6413 153.818 17.2123C153.88 16.7871 153.876 16.4123 153.804 16.088C153.735 15.7675 153.572 15.5051 153.319 15.3019C153.062 15.1019 152.674 15.0015 152.148 15.0015C151.64 15.0015 151.124 15.0557 150.597 15.1604L148.046 25.8087H144.127L147.31 12.674Z" fill="#5E647A"/>
<path d="M241.787 15.8088C241.665 12.6817 244.115 10.0585 247.242 9.93689H247.468C250.352 9.93689 252.054 11.622 252.558 13.6025L250.751 14.2105C250.421 12.6817 249.014 11.622 247.468 11.7436C245.609 11.7436 243.733 13.0987 243.733 15.8435C243.733 18.5884 245.557 19.8913 247.485 19.8913C249.049 19.926 250.438 18.9011 250.855 17.407L252.61 17.9803C251.985 20.2735 249.848 21.837 247.468 21.7154C244.375 21.7675 241.822 19.318 241.77 16.2257C241.77 16.0867 241.77 15.9477 241.787 15.8088Z" fill="#5E647A"/>
<path d="M256.12 21.455H254.227V9.90234H256.12V14.4365C256.659 13.7938 257.475 13.4289 258.326 13.4637C260.237 13.4637 261.176 14.8361 261.176 16.5386V21.455H259.334V16.8513C259.456 16.0348 258.882 15.2704 258.066 15.1488C257.962 15.1314 257.84 15.1314 257.736 15.1488C256.85 15.1488 256.12 15.8785 256.12 16.7644C256.12 16.8166 256.12 16.8513 256.12 16.9034V21.455Z" fill="#5E647A"/>
<path d="M265.275 17.0078L267.273 16.6951C267.725 16.643 267.846 16.3998 267.846 16.1392C267.846 15.479 267.412 14.9578 266.37 14.9578C265.571 14.8884 264.858 15.479 264.771 16.2782V16.3476L263.086 15.9654C263.225 14.6278 264.441 13.4291 266.352 13.4291C268.75 13.4291 269.653 14.7841 269.653 16.365V20.2217C269.653 20.6386 269.67 21.0556 269.757 21.4725H268.037C267.968 21.1424 267.951 20.8124 267.968 20.4823C267.447 21.2814 266.526 21.7505 265.571 21.7157C264.233 21.82 263.069 20.8471 262.93 19.5094V19.3878C262.913 17.9459 263.938 17.1989 265.275 17.0078ZM267.829 18.2586V17.9112L265.796 18.2065C265.223 18.2239 264.771 18.6929 264.754 19.2662C264.754 19.8395 265.223 20.2912 265.796 20.2738H265.883C266.856 20.3954 267.742 19.6831 267.846 18.7103C267.846 18.6929 267.846 18.6929 267.846 18.6755C267.881 18.5366 267.864 18.3976 267.829 18.2586Z" fill="#5E647A"/>
<path d="M272.797 9.74609C273.457 9.74609 274.013 10.2673 274.03 10.9448C274.03 11.6049 273.492 12.1435 272.832 12.1609C272.172 12.1609 271.633 11.6223 271.616 10.9622C271.598 10.2846 272.137 9.74609 272.797 9.74609ZM271.894 21.4899V13.6896H273.752V21.4551L271.894 21.4899Z" fill="#5E647A"/>
<path d="M277.957 21.4547H276.098V13.6892H277.904V14.7315C278.391 13.9324 279.259 13.446 280.198 13.4633C282.091 13.4633 282.995 14.8358 282.995 16.5383V21.4547H281.153V16.851C281.153 15.8955 280.719 15.1311 279.555 15.1311C278.651 15.1311 277.922 15.8781 277.922 16.7815C277.922 16.851 277.922 16.9031 277.922 16.9726L277.957 21.4547Z" fill="#5E647A"/>
<path d="M287.111 9.90234H285.27V21.455H287.111V9.90234Z" fill="#5E647A"/>
<path d="M290.429 9.74609C291.089 9.74609 291.628 10.2846 291.645 10.9448C291.645 11.6049 291.107 12.1435 290.447 12.1609C289.786 12.1609 289.248 11.6223 289.23 10.9622V10.9448C289.23 10.2846 289.752 9.74609 290.429 9.74609ZM289.508 21.4899V13.6896H291.35V21.4551L289.508 21.4899Z" fill="#5E647A"/>
<path d="M295.59 21.4547H293.748V13.6892H295.555V14.7315C296.041 13.9324 296.91 13.446 297.848 13.4633C299.742 13.4633 300.662 14.8358 300.662 16.5383V21.4547H298.821V16.851C298.942 16.0345 298.369 15.2701 297.553 15.1485C297.448 15.1311 297.327 15.1311 297.223 15.1485C296.319 15.1485 295.59 15.8781 295.607 16.7815C295.607 16.851 295.607 16.9205 295.607 16.9726L295.59 21.4547Z" fill="#5E647A"/>
<path d="M306.969 16.9555L310.235 21.455H307.959L305.684 18.2411L304.728 19.2487V21.455H302.887V9.90234H304.728V16.8166L307.716 13.6895H310.166L306.969 16.9555Z" fill="#5E647A"/>
<path d="M219.863 6.77524L227.872 11.3789V20.6037L219.898 25.2248L211.889 20.6732V11.4137L219.863 6.77524ZM219.863 0L216.927 1.7025L208.936 6.34093L206 8.04343V24.0434L208.936 25.7286L216.945 30.3149L219.881 32L222.817 30.2975L230.79 25.6591L233.726 23.9566V7.9392L230.79 6.25407L222.782 1.65038L219.863 0Z" fill="#5E647A"/>
<g clip-path="url(#clip1_2877_6623)">
<path d="M370.048 4.0625C363.557 4.0625 358.295 9.32452 358.295 15.8156C358.295 22.3067 363.557 27.5688 370.048 27.5688C376.539 27.5688 381.801 22.3067 381.801 15.8156C381.801 9.32452 376.539 4.0625 370.048 4.0625ZM368.233 9.51256H371.869L370.587 14.3392L372.366 13.6893L372.381 13.7311L371.932 15.4205L370.124 16.0808L369.361 18.9553H375.401L374.781 21.2658H365.105L366.094 17.5535L364.695 18.0644L365.157 16.3227L366.557 15.8114L368.233 9.51256Z" fill="#5E647A"/>
<path fill-rule="evenodd" clip-rule="evenodd" d="M388.512 26.5231H387.035V5.47693H388.512V26.5231ZM394.42 26.5231H392.943V11.3846H394.42V26.5231ZM392.943 6.96073C392.943 6.64883 393.041 6.3851 393.238 6.16952C393.435 5.95395 393.704 5.84616 394.044 5.84616C394.384 5.84616 394.655 5.95395 394.856 6.16952C395.058 6.3851 395.158 6.64883 395.158 6.96073C395.158 7.27263 395.058 7.53407 394.856 7.74506C394.655 7.95605 394.384 8.06154 394.044 8.06154C393.704 8.06154 393.435 7.95605 393.238 7.74506C393.041 7.53407 392.943 7.27263 392.943 6.96073ZM401.984 7.69231V11.4749H405.222V12.8131H401.984V22.6586C401.984 23.4779 402.141 24.0879 402.454 24.4884C402.767 24.889 403.29 25.0893 404.022 25.0893C404.311 25.0893 404.779 25.0438 405.424 24.9527L405.497 26.2909C405.044 26.4457 404.427 26.5231 403.647 26.5231C402.461 26.5231 401.599 26.1976 401.059 25.5467C400.52 24.8958 400.25 23.9377 400.25 22.6723V12.8131H397.374V11.4749H400.25V7.69231H401.984ZM414.176 26.5231C412.88 26.5231 411.708 26.2098 410.661 25.5832C409.614 24.9566 408.799 24.0836 408.216 22.9641C407.634 21.8445 407.343 20.5891 407.343 19.1977V18.6034C407.343 17.1659 407.627 15.8713 408.195 14.7195C408.764 13.5677 409.555 12.6625 410.569 12.0036C411.584 11.3448 412.683 11.0154 413.866 11.0154C415.717 11.0154 417.184 11.635 418.269 12.8744C419.354 14.1137 419.897 15.8068 419.897 17.9538V18.8798H409.02V19.1977C409.02 20.8931 409.515 22.3052 410.506 23.434C411.497 24.5627 412.744 25.1271 414.247 25.1271C415.148 25.1271 415.945 24.9659 416.635 24.6434C417.325 24.3209 417.952 23.8049 418.516 23.0954L419.573 23.8832C418.333 25.6431 416.534 26.5231 414.176 26.5231ZM414.025 12.4923C412.745 12.4923 411.666 12.9263 410.789 13.7942C409.912 14.6622 409.379 15.8282 409.189 17.2923H418.42V17.1214C418.372 15.7537 417.95 14.6403 417.154 13.7811C416.357 12.9219 415.314 12.4923 414.025 12.4923ZM428.718 25.1271C429.909 25.1271 430.908 24.8023 431.713 24.1527C432.519 23.5031 432.955 22.6623 433.022 21.6303H434.666C434.618 22.5425 434.323 23.3741 433.779 24.1251C433.236 24.876 432.514 25.4634 431.613 25.8873C430.712 26.3112 429.747 26.5231 428.718 26.5231C426.688 26.5231 425.079 25.8412 423.892 24.4775C422.705 23.1138 422.112 21.2801 422.112 18.9766V18.479C422.112 17.0047 422.379 15.7009 422.913 14.5675C423.447 13.4341 424.212 12.5588 425.208 11.9414C426.204 11.3241 427.369 11.0154 428.704 11.0154C430.4 11.0154 431.799 11.5037 432.9 12.4805C434.001 13.4572 434.59 14.7426 434.666 16.3367H433.022C432.945 15.1664 432.509 14.222 431.713 13.5033C430.917 12.7845 429.914 12.4252 428.704 12.4252C427.159 12.4252 425.961 12.9642 425.108 14.0423C424.254 15.1204 423.828 16.6315 423.828 18.5757V19.0595C423.828 20.9669 424.254 22.455 425.108 23.5238C425.961 24.5927 427.164 25.1271 428.718 25.1271ZM437.251 18.5481C437.251 17.1107 437.536 15.8161 438.106 14.6643C438.677 13.5125 439.483 12.6164 440.525 11.976C441.566 11.3356 442.747 11.0154 444.067 11.0154C446.104 11.0154 447.754 11.7134 449.017 13.1093C450.28 14.5053 450.912 16.3551 450.912 18.6587V19.0042C450.912 20.4509 450.627 21.7524 450.056 22.9088C449.486 24.0652 448.682 24.9566 447.645 25.5832C446.608 26.2098 445.425 26.5231 444.095 26.5231C442.068 26.5231 440.421 25.8251 439.153 24.4291C437.885 23.0332 437.251 21.1834 437.251 18.8798V18.5481ZM438.727 18.9946C438.727 20.7614 439.204 22.2116 440.157 23.3454C441.109 24.4793 442.358 25.0462 443.904 25.0462C445.44 25.0462 446.684 24.4793 447.637 23.3454C448.59 22.2116 449.066 20.7158 449.066 18.858V18.5438C449.066 17.4146 448.848 16.381 448.412 15.4429C447.976 14.5049 447.364 13.7787 446.577 13.2641C445.79 12.7496 444.89 12.4923 443.875 12.4923C442.358 12.4923 441.121 13.0638 440.164 14.2067C439.206 15.3496 438.727 16.8454 438.727 18.6941V18.9946ZM456.081 26.5231H454.604V11.3846H456.081V26.5231ZM453.866 6.96073C453.866 6.64883 453.964 6.3851 454.161 6.16952C454.358 5.95395 454.627 5.84616 454.967 5.84616C455.307 5.84616 455.578 5.95395 455.779 6.16952C455.981 6.3851 456.081 6.64883 456.081 6.96073C456.081 7.27263 455.981 7.53407 455.779 7.74506C455.578 7.95605 455.307 8.06154 454.967 8.06154C454.627 8.06154 454.358 7.95605 454.161 7.74506C453.964 7.53407 453.866 7.27263 453.866 6.96073ZM462.111 11.6594L462.167 14.2008C462.738 13.2849 463.448 12.5866 464.299 12.1058C465.15 11.625 466.09 11.3846 467.119 11.3846C468.746 11.3846 469.957 11.8334 470.752 12.7309C471.547 13.6284 471.949 14.9746 471.958 16.7696V26.5231H470.289V16.7559C470.28 15.4279 469.992 14.4389 469.426 13.7886C468.861 13.1384 467.956 12.8133 466.712 12.8133C465.674 12.8133 464.755 13.1315 463.956 13.768C463.156 14.4045 462.565 15.2631 462.181 16.3438V26.5231H460.512V11.6594H462.111Z" fill="#5E647A"/>
</g>
<path d="M532.432 21.2026C532.432 21.5074 532.177 21.7555 531.872 21.7555H521.084C521.353 24.4205 523.359 26.8517 526.18 26.8517C528.108 26.8517 529.54 26.1146 530.617 24.5765C530.773 24.3638 531.007 24.2292 531.305 24.3568C531.468 24.4276 531.581 24.5765 531.61 24.7466C531.638 24.9238 531.588 25.023 531.539 25.1223C530.454 27.0148 528.292 27.9433 526.173 27.9433C522.544 27.9433 519.957 24.697 519.957 21.2239C519.957 17.7507 522.544 14.5044 526.173 14.5044C529.802 14.4973 532.425 17.7366 532.432 21.2026ZM531.277 20.6781C531.043 18.013 529.001 15.5818 526.18 15.5818C523.359 15.5818 521.353 18.013 521.084 20.6781H531.277ZM545.523 14.7667C545.835 14.7667 546.062 15.036 546.062 15.3054C546.062 15.6172 545.828 15.8441 545.523 15.8441H542.631V27.192C542.631 27.4613 542.398 27.7307 542.093 27.7307C541.781 27.7307 541.554 27.4613 541.554 27.192V15.8441H538.776C538.464 15.8441 538.237 15.6102 538.237 15.3054C538.237 15.036 538.471 14.7667 538.776 14.7667H541.554V10.6131C541.554 10.3509 541.731 10.1099 541.986 10.0673C542.348 10.0106 542.631 10.2587 542.631 10.5989V14.7667H545.523ZM563.165 20.2528V27.1282C563.165 27.44 562.896 27.6669 562.627 27.6669C562.315 27.6669 562.088 27.433 562.088 27.1282V20.2528C562.088 17.935 560.777 15.6172 558.19 15.6172C554.872 15.6172 553.441 18.5162 553.632 21.4861C553.632 21.5641 553.667 21.9114 553.667 21.9468V27.1069C553.667 27.3692 553.49 27.6102 553.235 27.6527C552.874 27.7094 552.59 27.4613 552.59 27.1211V4.53869C552.59 4.26934 552.824 4 553.129 4C553.441 4 553.667 4.26934 553.667 4.53869V17.3184C554.596 15.6598 556.255 14.5399 558.182 14.5399C561.351 14.5399 563.165 17.3184 563.165 20.2528ZM582.508 21.2026C582.508 21.5074 582.253 21.7555 581.948 21.7555H571.153C571.423 24.4205 573.429 26.8517 576.25 26.8517C578.178 26.8517 579.609 26.1146 580.687 24.5765C580.843 24.3638 581.077 24.2292 581.374 24.3568C581.537 24.4276 581.651 24.5765 581.679 24.7466C581.707 24.9238 581.658 25.023 581.608 25.1223C580.524 27.0148 578.362 27.9433 576.243 27.9433C572.614 27.9433 570.026 24.697 570.026 21.2239C570.026 17.7507 572.614 14.5044 576.243 14.5044C579.879 14.4973 582.501 17.7366 582.508 21.2026ZM581.346 20.6781C581.112 18.013 579.071 15.5818 576.25 15.5818C573.429 15.5818 571.423 18.013 571.153 20.6781H581.346ZM595.749 15.2699C595.749 15.6172 595.557 15.8086 595.245 15.8512C592.077 16.3119 590.652 18.899 590.652 21.9114V27.0715C590.652 27.3337 590.475 27.5747 590.22 27.6172C589.859 27.674 589.575 27.4259 589.575 27.0856V15.3266C589.575 15.0644 589.752 14.8234 590.007 14.7809C590.369 14.7242 590.652 14.9722 590.652 15.3125V17.7082C591.538 16.2055 593.318 14.7738 595.168 14.7738C595.437 14.7667 595.749 14.9651 595.749 15.2699ZM613.469 21.2026C613.469 21.5074 613.214 21.7555 612.909 21.7555H602.121C602.39 24.4205 604.396 26.8517 607.217 26.8517C609.145 26.8517 610.577 26.1146 611.654 24.5765C611.81 24.3638 612.044 24.2292 612.342 24.3568C612.505 24.4276 612.618 24.5765 612.646 24.7466C612.675 24.9238 612.625 25.023 612.576 25.1223C611.491 27.0148 609.329 27.9433 607.21 27.9433C603.581 27.9433 600.994 24.697 600.994 21.2239C600.994 17.7507 603.581 14.5044 607.21 14.5044C610.839 14.4973 613.462 17.7366 613.469 21.2026ZM612.313 20.6781C612.079 18.013 610.038 15.5818 607.217 15.5818C604.396 15.5818 602.39 18.013 602.121 20.6781H612.313ZM630.884 15.4046V27.192C630.884 27.5038 630.615 27.7307 630.345 27.7307C630.033 27.7307 629.806 27.4967 629.806 27.192V24.9522C628.92 26.7312 627.333 28 625.327 28C622.123 28 620.344 25.2215 620.344 22.2871V15.3762C620.344 15.1069 620.578 14.8376 620.883 14.8376C621.195 14.8376 621.421 15.1069 621.421 15.3762V22.2871C621.421 24.6048 622.733 26.9226 625.32 26.9226C628.949 26.9226 629.799 23.5275 629.799 19.7779V15.3762C629.799 15.0644 630.111 14.7454 630.494 14.8588C630.728 14.9368 630.884 15.1636 630.884 15.4046ZM658.173 20.2103V27.1211C658.173 27.433 657.903 27.6598 657.634 27.6598C657.322 27.6598 657.095 27.4259 657.095 27.1211V20.2103C657.095 17.8925 655.784 15.6172 653.197 15.6172C649.95 15.6172 648.717 19.0904 648.717 21.7909V27.1211C648.717 27.433 648.448 27.6598 648.178 27.6598C647.867 27.6598 647.64 27.4259 647.64 27.1211V20.2103C647.64 17.8925 646.329 15.6172 643.741 15.6172C640.46 15.6172 639.106 18.2044 639.226 21.642C639.226 21.72 639.262 21.876 639.226 21.9114V27.1069C639.226 27.3692 639.049 27.6102 638.787 27.6527C638.425 27.7094 638.142 27.4613 638.142 27.1211V15.3266C638.142 15.0644 638.319 14.8234 638.574 14.7809C638.936 14.7242 639.219 14.9722 639.219 15.3125V17.2829C640.148 15.6243 641.806 14.5399 643.734 14.5399C645.932 14.5399 647.633 15.9291 648.327 17.9776C649.213 15.9716 650.95 14.5399 653.19 14.5399C656.358 14.5399 658.173 17.2758 658.173 20.2103Z" fill="#5E647A"/>
<path d="M711.403 16.1539C709.157 10.4923 707.403 5.75386 707.496 5.63078C707.619 5.53847 711.28 6.09232 715.619 6.86155L723.557 8.3077L725.619 10.3692L727.65 12.4616L721.926 19.4462C718.757 23.2923 716.019 26.4308 715.834 26.4308C715.65 26.4616 713.68 21.8154 711.403 16.1539ZM716.203 18.2154C716.48 15.9692 716.665 14.0923 716.603 14.0308C716.542 14 715.311 12.9846 713.865 11.8154C709.773 8.46155 710.05 8.6154 710.542 9.84617C710.788 10.4308 712.019 13.5077 713.28 16.6769C714.542 19.8154 715.588 22.3692 715.619 22.3385C715.65 22.3077 715.926 20.4616 716.203 18.2154ZM721.034 18C723.003 15.6308 724.542 13.6616 724.511 13.6C724.419 13.5077 718.419 14.5231 718.234 14.6462C718.08 14.7385 717.28 20.8308 717.25 21.8154C717.25 22.2154 717.311 22.4923 717.373 22.4308C717.434 22.3692 719.096 20.3692 721.034 18ZM722.88 12.3077L725.003 11.9077L724.08 10.9846C723.034 9.93847 722.942 9.96924 720.634 12C719.834 12.7077 719.711 12.9231 720.173 12.8C720.511 12.7385 721.742 12.4923 722.88 12.3077ZM719.434 11.0154C720.48 10.1231 721.219 9.38463 721.065 9.32309C720.05 9.07693 711.896 7.69232 711.711 7.75386C711.465 7.84617 716.911 12.5539 717.311 12.5846C717.403 12.6154 718.357 11.9077 719.434 11.0154Z" fill="#5E647A"/>
<path d="M771.835 17.8462L768.174 13.5385L768.081 17.3847C768.02 20.9847 767.958 21.2308 767.404 21.2308C766.82 21.2308 766.789 20.9847 766.789 15.5385C766.789 12.4 766.851 9.84619 766.912 9.84619C767.004 9.84619 768.697 11.7231 770.697 14.0308L774.328 18.2154L774.42 14.4923C774.481 11.0154 774.543 10.7693 775.097 10.7693C775.681 10.7693 775.712 11.0154 775.712 16.4616C775.712 19.6 775.681 22.1539 775.62 22.1539C775.558 22.1539 773.866 20.2154 771.835 17.8462Z" fill="#5E647A"/>
<path d="M734.174 17.5385C734.174 14.0616 734.205 13.8462 734.789 13.8462C735.374 13.8462 735.405 14.0616 735.405 17.5385C735.405 21.0154 735.374 21.2308 734.789 21.2308C734.205 21.2308 734.174 21.0154 734.174 17.5385Z" fill="#5E647A"/>
<path d="M736.02 17.5385C736.02 14.0616 736.05 13.8462 736.635 13.8462C737.22 13.8462 737.25 14.0616 737.25 17.5385C737.25 21.0154 737.22 21.2308 736.635 21.2308C736.05 21.2308 736.02 21.0154 736.02 17.5385Z" fill="#5E647A"/>
<path d="M742.48 16.0001V10.7693H746.05C747.988 10.7693 749.865 10.9231 750.204 11.077C750.511 11.2616 751.004 11.8154 751.25 12.3077C751.988 13.7231 751.834 14.9231 750.788 16.1231L749.834 17.2001L750.788 19.0462C751.28 20.0616 751.711 20.9847 751.711 21.077C751.711 21.1693 751.404 21.2308 751.034 21.2308C750.48 21.2308 750.08 20.7693 749.25 19.2308C748.234 17.3231 748.111 17.2308 747.034 17.2308H745.865V19.2308C745.865 21.0154 745.804 21.2308 745.25 21.2308C744.696 21.2308 744.634 21.0154 744.634 18.6462V16.0924L746.973 15.9385C749.373 15.7847 749.927 15.477 750.327 14.2462C750.45 13.7231 750.296 13.3539 749.742 12.7693C749.034 12.0616 748.727 12.0001 746.327 12.0001H743.711V16.6154C743.711 21.0154 743.68 21.2308 743.096 21.2308C742.511 21.2308 742.48 21.0154 742.48 16.0001Z" fill="#5E647A"/>
<path d="M757.403 20.7693C754.203 19.6308 752.942 15.7231 754.88 12.9231C755.803 11.5385 757.373 10.7693 759.28 10.7693C763.096 10.7693 765.496 14.8001 763.803 18.3693C762.819 20.4924 759.803 21.6308 757.403 20.7693ZM761.711 18.7693C763.403 17.1693 763.465 14.7385 761.834 13.2001C759.373 10.8924 755.373 12.5231 755.403 15.7847C755.434 17.3539 755.926 18.3078 757.126 19.1078C758.326 19.9385 760.665 19.7539 761.711 18.7693Z" fill="#5E647A"/>
<path d="M758.48 15.8769C758.48 15.2308 758.634 15.0769 759.28 15.0769C759.927 15.0769 760.05 15.2 759.957 15.7846C759.896 16.2154 759.619 16.4923 759.188 16.5538C758.604 16.6461 758.48 16.5231 758.48 15.8769Z" fill="#5E647A"/>
<path d="M768.635 19.0769C768.635 17.1385 768.696 16.9231 769.25 16.9231C769.804 16.9231 769.866 17.1385 769.866 19.0769C769.866 21.0154 769.804 21.2308 769.25 21.2308C768.696 21.2308 768.635 21.0154 768.635 19.0769Z" fill="#5E647A"/>
<path d="M731.096 11.3847C731.096 10.8001 731.311 10.7693 735.711 10.7693C740.111 10.7693 740.326 10.8001 740.326 11.3847C740.326 11.9693 740.111 12.0001 735.711 12.0001C731.311 12.0001 731.096 11.9693 731.096 11.3847Z" fill="#5E647A"/>
<path d="M836.941 28C843.569 28 848.941 22.6274 848.941 16C848.941 9.37258 843.569 4 836.941 4C830.314 4 824.941 9.37258 824.941 16C824.941 22.6274 830.314 28 836.941 28Z" fill="#5E647A"/>
<path d="M838.22 17.1074V17.1055C838.137 17.1113 837.709 17.1363 836.755 17.1363C835.993 17.1363 835.459 17.1151 835.27 17.1055V17.1074C832.339 16.9781 830.154 16.4688 830.154 15.8572C830.154 15.2476 832.341 14.7363 835.27 14.6071V16.6C835.461 16.6135 836.011 16.6463 836.769 16.6463C837.68 16.6463 838.135 16.6077 838.22 16.6V14.609C841.145 14.7402 843.325 15.2495 843.325 15.8592C843.325 16.4688 841.143 16.9781 838.22 17.1093V17.1074ZM838.22 14.4026V12.6199H842.3V9.90161H831.192V12.6199H835.272V14.4026C831.955 14.555 829.463 15.2109 829.463 15.9981C829.463 16.7852 831.957 17.4412 835.272 17.5955V23.31H838.222V17.5955C841.532 17.4431 844.021 16.7871 844.021 16C844.021 15.2148 841.532 14.5569 838.222 14.4045" fill="#23252F"/>
<path d="M859.135 10.6443V13.5266H861.936V15.6893H859.116V20.0746C859.116 21.043 859.65 21.5157 860.433 21.5157C860.825 21.5157 861.278 21.3922 861.649 21.207L862.349 23.3485C861.63 23.636 861.031 23.7594 860.269 23.7807C858.066 23.8636 856.625 22.6077 856.625 20.0746V15.6893H854.73V13.5266H856.625V10.9125L859.135 10.6443ZM907.43 13.3916L907.615 14.5646C908.399 13.3086 909.448 13.1234 910.478 13.1234C911.528 13.1234 912.537 13.5344 913.093 14.09L911.96 16.272C911.445 15.8398 910.972 15.6122 910.148 15.6122C908.831 15.6122 907.615 16.3125 907.615 18.1858V23.5395H905.103V13.3877L907.43 13.3916ZM901.274 17.2829C901.11 15.9652 900.08 15.3054 898.639 15.3054C897.28 15.3054 896.167 15.9652 895.797 17.2829H901.274ZM895.756 19.3627C895.92 20.6186 897.012 21.5254 898.783 21.5254C899.709 21.5254 900.925 21.1742 901.502 20.5781L903.107 22.1639C902.036 23.2752 900.286 23.8115 898.741 23.8115C895.241 23.8115 893.159 21.6488 893.159 18.3961C893.159 15.3074 895.26 13.0829 898.556 13.0829C901.953 13.0829 904.075 15.1839 903.684 19.3627H895.756ZM884.678 9.12793V14.7691C885.585 13.5961 886.696 13.245 887.85 13.245C890.732 13.245 892.01 15.2012 892.01 18.1877V23.5414H889.498V18.209C889.498 16.3549 888.529 15.5736 887.19 15.5736C885.707 15.5736 884.678 16.8295 884.678 18.3537V23.5434H882.166V9.12986L884.678 9.12793ZM878.007 10.5286V13.4109H880.808V15.5736H877.988V19.9588C877.988 20.9273 878.524 21.4 879.305 21.4C879.697 21.4 880.15 21.2765 880.521 21.0913L881.221 23.2328C880.502 23.5202 879.903 23.6437 879.141 23.6649C876.938 23.7479 875.497 22.49 875.497 19.9588V15.5736H873.602V13.4109H875.497V10.7967L878.007 10.5286ZM871.067 17.2829C870.903 15.9652 869.873 15.3054 868.432 15.3054C867.074 15.3054 865.961 15.9652 865.59 17.2829H871.067ZM865.55 19.3627C865.714 20.6186 866.806 21.5254 868.577 21.5254C869.503 21.5254 870.718 21.1742 871.295 20.5781L872.9 22.1639C871.83 23.2752 870.08 23.8115 868.534 23.8115C865.033 23.8115 862.953 21.6488 862.953 18.3961C862.953 15.3074 865.054 13.0829 868.347 13.0829C871.745 13.0829 873.865 15.1839 873.475 19.3627H865.55Z" fill="#5E647A"/>
<path d="M995.053 11.56C995.893 12.3 996.313 13.4 996.313 14.82V22.2H994.473V15.46C994.473 14.26 994.213 13.38 993.693 12.84C993.173 12.3 992.493 12.04 991.633 12.04C991.03 12.0391 990.435 12.1759 989.893 12.44C989.333 12.74 988.873 13.1993 988.573 13.76C988.213 14.36 988.053 15.14 988.053 16.06V22.2H986.193V11L987.893 11.7L987.933 12.46C988.285 11.7866 988.847 11.246 989.533 10.92C990.243 10.5743 991.024 10.4029 991.813 10.42C993.12 10.42 994.2 10.8 995.053 11.56Z" fill="#5E647A"/>
<path d="M1009.45 17.12H1000.75C1000.85 18.3 1001.25 19.2 1001.91 19.84C1002.57 20.48 1003.45 20.82 1004.51 20.82C1005.24 20.8403 1005.97 20.6896 1006.63 20.38C1007.16 20.1161 1007.57 19.6576 1007.77 19.1L1009.31 19.92C1008.89 20.7057 1008.25 21.3521 1007.47 21.78C1006.71 22.22 1005.71 22.44 1004.51 22.44C1002.77 22.44 1001.41 21.9 1000.41 20.84C999.414 19.78 998.934 18.3 998.934 16.42C998.934 14.54 999.394 13.08 1000.35 12.02C1001.31 10.96 1002.63 10.42 1004.37 10.42C1005.36 10.3937 1006.33 10.6431 1007.17 11.14C1007.94 11.6003 1008.56 12.2743 1008.95 13.08C1009.36 13.9352 1009.57 14.8727 1009.55 15.82C1009.55 16.2551 1009.52 16.6894 1009.45 17.12ZM1001.91 12.94C1001.29 13.54 1000.91 14.38 1000.77 15.48H1007.77C1007.65 14.4 1007.29 13.56 1006.71 12.96C1006.13 12.36 1005.35 12.04 1004.37 12.04C1003.39 12.04 1002.53 12.34 1001.91 12.94Z" fill="#5E647A"/>
<path d="M1021.77 12.02C1022.77 13.08 1023.27 14.54 1023.27 16.42C1023.27 18.3 1022.77 19.78 1021.77 20.84C1020.77 21.9 1019.41 22.44 1017.67 22.44C1015.93 22.44 1014.57 21.9 1013.57 20.84C1012.57 19.78 1012.09 18.3 1012.09 16.42C1012.09 14.54 1012.59 13.08 1013.57 12.02C1014.55 10.96 1015.93 10.42 1017.67 10.42C1019.41 10.42 1020.79 10.96 1021.77 12.02ZM1014.93 13.2C1014.27 13.98 1013.93 15.06 1013.93 16.42C1013.93 17.78 1014.27 18.88 1014.93 19.66C1015.59 20.44 1016.51 20.84 1017.67 20.84C1018.83 20.84 1019.77 20.44 1020.43 19.66C1021.09 18.88 1021.41 17.8 1021.41 16.42C1021.41 15.04 1021.09 13.98 1020.43 13.2C1019.77 12.42 1018.85 12.02 1017.67 12.02C1016.49 12.02 1015.59 12.4 1014.93 13.2Z" fill="#5E647A"/>
<path d="M961.094 8.2V24.26L971.534 28V11.8L982.794 7.66L972.574 4L961.094 8.2Z" fill="#5E647A"/>
<path d="M972.373 12.4V21.06L982.793 24.78V8.54004L972.373 12.4Z" fill="#5E647A"/>
<g clip-path="url(#clip2_2877_6623)">
<path d="M1078.61 14.0845L1083.27 9.42516L1087.94 14.0883L1090.65 11.3757L1083.27 4L1075.9 11.3738L1078.61 14.0845Z" fill="#5E647A"/>
<path d="M1071.27 16.0002L1073.98 13.2887L1076.69 16.0002L1073.98 18.7118L1071.27 16.0002Z" fill="#5E647A"/>
<path d="M1078.61 17.9155L1083.27 22.5767L1087.94 17.9136L1090.65 20.6224L1090.65 20.6243L1083.27 28L1075.9 20.6281L1075.9 20.6243L1078.61 17.9155Z" fill="#5E647A"/>
<path d="M1089.85 16.0011L1092.56 13.2895L1095.27 16.0011L1092.56 18.7127L1089.85 16.0011Z" fill="#5E647A"/>
<path d="M1086.02 15.999L1083.27 13.2466L1081.24 15.2805L1081 15.5137L1080.52 15.9952L1080.52 15.999L1080.52 16.0047L1083.27 18.7533L1086.02 16.0009L1086.03 15.999H1086.02Z" fill="#5E647A"/>
<path d="M1099.5 9.81543H1105.4C1106.86 9.81543 1107.97 10.1945 1108.72 10.9528C1109.01 11.2329 1109.23 11.5675 1109.38 11.9364C1109.53 12.3052 1109.6 12.7006 1109.59 13.0986V13.1346C1109.6 13.4606 1109.55 13.7854 1109.46 14.0976C1109.37 14.3662 1109.25 14.6216 1109.1 14.8558C1108.95 15.0767 1108.77 15.2758 1108.57 15.4472C1108.38 15.6166 1108.16 15.7629 1107.93 15.8832C1108.59 16.1144 1109.19 16.5049 1109.67 17.0205C1110.09 17.5008 1110.3 18.1642 1110.3 19.0109V19.0469C1110.31 19.5757 1110.2 20.0997 1109.97 20.5748C1109.74 21.0125 1109.41 21.3876 1109 21.6666C1108.55 21.9741 1108.04 22.1957 1107.5 22.3206C1106.86 22.4721 1106.2 22.5453 1105.55 22.5386H1099.5V9.81543ZM1104.81 14.96C1105.32 14.9847 1105.83 14.8749 1106.28 14.6416C1106.46 14.538 1106.6 14.3869 1106.7 14.2053C1106.8 14.0238 1106.84 13.819 1106.82 13.6142V13.5782C1106.83 13.3895 1106.8 13.2015 1106.71 13.0315C1106.63 12.8615 1106.51 12.7151 1106.35 12.6057C1106.04 12.3821 1105.58 12.2702 1104.99 12.2702H1102.23V14.96H1104.81ZM1105.55 20.0876C1106.06 20.1161 1106.57 19.9998 1107.01 19.7521C1107.19 19.6407 1107.33 19.4849 1107.42 19.3009C1107.51 19.1168 1107.55 18.9113 1107.54 18.7057V18.6697C1107.55 18.4743 1107.51 18.2802 1107.42 18.1044C1107.34 17.9286 1107.21 17.7764 1107.05 17.6613C1106.72 17.4085 1106.2 17.2821 1105.47 17.2821H1102.23V20.0876H1105.55Z" fill="#5E647A"/>
<path d="M1113.82 9.81543H1116.62V22.5424H1113.82V9.81543Z" fill="#5E647A"/>
<path d="M1120.85 9.81543H1123.43L1129.4 17.648V9.81543H1132.16V22.5424H1129.78L1123.62 14.452V22.5424H1120.85V9.81543Z" fill="#5E647A"/>
<path d="M1140.64 9.72473H1143.22L1148.67 22.5427H1145.75L1144.59 19.6879H1139.21L1138.04 22.5427H1135.19L1140.64 9.72473ZM1143.59 17.2161L1141.89 13.0875L1140.21 17.2161H1143.59Z" fill="#5E647A"/>
<path d="M1151.7 9.81543H1154.28L1160.25 17.648V9.81543H1163.01V22.5424H1160.63L1154.46 14.452V22.5424H1151.7V9.81543Z" fill="#5E647A"/>
<path d="M1173.09 22.7661C1172.2 22.7738 1171.31 22.601 1170.49 22.2581C1169.71 21.9379 1169.01 21.4656 1168.42 20.8692C1167.83 20.2728 1167.36 19.5643 1167.05 18.7854C1166.72 17.9707 1166.55 17.0994 1166.56 16.2207V16.1847C1166.54 14.4525 1167.21 12.784 1168.41 11.5386C1169.01 10.9303 1169.72 10.448 1170.5 10.1207C1171.35 9.76766 1172.27 9.5916 1173.19 9.6032C1173.74 9.59913 1174.28 9.64801 1174.82 9.74916C1175.27 9.83591 1175.72 9.96995 1176.15 10.1491C1176.55 10.3138 1176.92 10.521 1177.26 10.7671C1177.6 11.0071 1177.92 11.2746 1178.21 11.567L1176.43 13.6218C1175.98 13.2022 1175.47 12.847 1174.91 12.566C1174.37 12.307 1173.78 12.1772 1173.18 12.1869C1172.68 12.1816 1172.18 12.2826 1171.73 12.4832C1171.27 12.6839 1170.86 12.9796 1170.52 13.3508C1170.19 13.721 1169.93 14.1497 1169.76 14.6151C1169.58 15.1069 1169.48 15.6278 1169.49 16.1524V16.1885C1169.49 16.7123 1169.58 17.2323 1169.76 17.7239C1169.93 18.1909 1170.19 18.6222 1170.52 18.9958C1170.85 19.3716 1171.26 19.6716 1171.72 19.8757C1172.17 20.0798 1172.67 20.1831 1173.17 20.1787C1173.81 20.1988 1174.44 20.0614 1175.02 19.7787C1175.56 19.4816 1176.06 19.1145 1176.51 18.6868L1178.3 20.4876C1177.98 20.8291 1177.64 21.146 1177.28 21.4354C1176.92 21.7174 1176.53 21.9584 1176.12 22.1539C1175.69 22.3598 1175.23 22.5119 1174.75 22.6069C1174.2 22.7168 1173.65 22.7701 1173.09 22.7661Z" fill="#5E647A"/>
<path d="M1181.6 9.81543H1191.18V12.3062H1184.36V14.888H1190.37V17.3788H1184.37V20.0516H1191.27V22.5424H1181.61L1181.6 9.81543Z" fill="#5E647A"/>
</g>
<g clip-path="url(#clip3_2877_6623)">
<path fill-rule="evenodd" clip-rule="evenodd" d="M1251.56 11.908H1249.85V15.2882H1252.54V16.7035H1249.85V20.0836L1251.64 20.0836C1252.11 20.0836 1255.44 20.1358 1255.43 16.1509C1255.43 12.1661 1252.2 11.908 1251.56 11.908Z" fill="#5E647A"/>
<path d="M1251.27 4C1244.65 4 1239.27 9.37252 1239.27 16C1239.27 22.6275 1244.65 28 1251.27 28C1257.9 28 1263.27 22.6275 1263.27 16C1263.27 9.37252 1257.9 4 1251.27 4ZM1251.74 22.4812H1247.4V16.7037H1245.87V15.2884H1247.4V9.51052H1251.13C1252.01 9.51052 1257.86 9.32728 1257.86 16.1043C1257.86 22.9934 1251.75 22.4812 1251.75 22.4812H1251.74Z" fill="#5E647A"/>
<path fill-rule="evenodd" clip-rule="evenodd" d="M1273.54 13.3854H1274.58C1275.12 13.3854 1275.57 13.2668 1275.94 13.0296C1276.31 12.7925 1276.6 12.4791 1276.82 12.0894C1277.04 11.6998 1277.2 11.248 1277.3 10.7341C1277.39 10.2202 1277.44 9.69224 1277.44 9.15012C1277.44 8.50635 1277.3 7.99247 1277.01 7.60847C1276.72 7.22447 1276.21 7.03247 1275.48 7.03247H1274.44L1273.54 13.3854ZM1270.61 4.22024H1276.66C1278.36 4.22024 1279.64 4.64376 1280.52 5.49082C1281.39 6.33789 1281.83 7.51811 1281.83 9.03153C1281.83 10.1158 1281.67 11.1068 1281.36 12.0047C1281.05 12.9026 1280.61 13.6734 1280.03 14.3172C1279.46 14.9609 1278.76 15.4607 1277.95 15.8165C1277.14 16.1722 1276.22 16.3501 1275.21 16.3501H1268.92L1270.61 4.22024ZM1287.2 11.2C1287.2 11.4824 1287.23 11.7478 1287.28 11.9962C1287.34 12.2447 1287.43 12.4621 1287.56 12.6485C1287.68 12.8348 1287.84 12.9845 1288.05 13.0974C1288.25 13.2104 1288.5 13.2668 1288.79 13.2668C1289.14 13.2668 1289.47 13.1793 1289.77 13.0042C1290.07 12.8292 1290.32 12.5751 1290.54 12.2419C1290.75 11.9087 1290.92 11.5049 1291.05 11.0306C1291.17 10.5562 1291.23 10.0198 1291.23 9.42118C1291.23 9.13882 1291.21 8.86777 1291.16 8.608C1291.1 8.34823 1291.02 8.11953 1290.89 7.92188C1290.77 7.72423 1290.6 7.56894 1290.4 7.456C1290.2 7.34306 1289.94 7.28659 1289.64 7.28659C1289.16 7.28659 1288.77 7.42494 1288.45 7.70165C1288.14 7.97835 1287.89 8.32 1287.7 8.72659C1287.51 9.13318 1287.38 9.56235 1287.31 10.0141C1287.24 10.4659 1287.2 10.8612 1287.2 11.2ZM1290.1 4C1291.02 4 1291.83 4.12706 1292.53 4.38118C1293.22 4.6353 1293.8 4.98823 1294.26 5.44C1294.73 5.89177 1295.07 6.4367 1295.31 7.07482C1295.54 7.71294 1295.65 8.41035 1295.65 9.16706C1295.65 10.1384 1295.5 11.0701 1295.19 11.9624C1294.88 12.8546 1294.41 13.6423 1293.8 14.3256C1293.18 15.0089 1292.42 15.5539 1291.5 15.9605C1290.59 16.3671 1289.53 16.5704 1288.33 16.5704C1287.41 16.5704 1286.6 16.4489 1285.9 16.2061C1285.21 15.9633 1284.63 15.6188 1284.17 15.1727C1283.7 14.7266 1283.36 14.1929 1283.13 13.5718C1282.89 12.9506 1282.78 12.256 1282.78 11.488C1282.78 10.5054 1282.93 9.56518 1283.24 8.66729C1283.55 7.76941 1284.02 6.97318 1284.63 6.27859C1285.25 5.584 1286.01 5.03059 1286.93 4.61835C1287.84 4.20612 1288.9 4 1290.1 4ZM1304.67 4C1305.54 4 1306.29 4.05647 1306.94 4.16941C1307.58 4.28235 1308.17 4.46306 1308.71 4.71153L1308.27 7.79482C1307.85 7.53506 1307.37 7.32612 1306.83 7.168C1306.3 7.00988 1305.75 6.93082 1305.17 6.93082C1304.46 6.93082 1303.85 7.05223 1303.34 7.29506C1302.82 7.53788 1302.4 7.85412 1302.06 8.24376C1301.72 8.63341 1301.47 9.07106 1301.3 9.55671C1301.14 10.0424 1301.06 10.528 1301.06 11.0136C1301.06 11.7591 1301.24 12.3661 1301.62 12.8348C1301.99 13.3035 1302.56 13.5379 1303.33 13.5379H1304.34L1304.56 12.0471H1303.19L1303.55 9.57365H1308.38L1307.46 15.9774C1306.75 16.1694 1306 16.3162 1305.2 16.4179C1304.4 16.5195 1303.6 16.5704 1302.79 16.5704C1301.78 16.5704 1300.9 16.4348 1300.13 16.1638C1299.37 15.8927 1298.73 15.5172 1298.22 15.0372C1297.71 14.5572 1297.32 13.9896 1297.05 13.3346C1296.79 12.6795 1296.65 11.968 1296.65 11.2C1296.65 9.91246 1296.9 8.81412 1297.41 7.90494C1297.91 6.99576 1298.55 6.25036 1299.34 5.66871C1300.12 5.08706 1300.99 4.66353 1301.93 4.39812C1302.87 4.1327 1303.78 4 1304.67 4ZM1310.97 4.22024H1320.27L1319.81 7.47294H1314.73L1314.54 8.82824H1319.39L1319 11.6066H1314.15L1313.93 13.1144H1319.13L1318.68 16.3501H1309.26L1310.97 4.22024ZM1328.15 4C1328.85 4 1329.46 4.05365 1330 4.16094C1330.54 4.26824 1331.09 4.41223 1331.65 4.59294L1331.16 8.01506C1330.73 7.78918 1330.3 7.59435 1329.87 7.43059C1329.43 7.26682 1328.98 7.18494 1328.52 7.18494C1327.95 7.18494 1327.45 7.27247 1327.01 7.44753C1326.57 7.62259 1326.2 7.86823 1325.88 8.18447C1325.57 8.50071 1325.34 8.8847 1325.17 9.33647C1325.01 9.78824 1324.93 10.2852 1324.93 10.8273C1324.93 11.6179 1325.16 12.2249 1325.63 12.6485C1326.1 13.072 1326.77 13.2838 1327.65 13.2838C1328.56 13.2838 1329.56 13.0353 1330.65 12.5384L1330.2 15.7402C1329.63 15.9887 1329.01 16.1892 1328.34 16.3416C1327.67 16.4941 1327.01 16.5704 1326.37 16.5704C1325.38 16.5704 1324.53 16.4376 1323.8 16.1722C1323.07 15.9068 1322.46 15.5426 1321.97 15.0795C1321.48 14.6165 1321.11 14.0631 1320.87 13.4193C1320.63 12.7755 1320.51 12.0753 1320.51 11.3186C1320.51 10.8329 1320.56 10.3162 1320.66 9.76847C1320.76 9.2207 1320.93 8.67577 1321.17 8.13365C1321.42 7.59153 1321.73 7.072 1322.12 6.57506C1322.5 6.07812 1322.98 5.63765 1323.55 5.25365C1324.12 4.86965 1324.78 4.56471 1325.54 4.33882C1326.29 4.11294 1327.16 4 1328.15 4ZM1336.28 11.2C1336.28 11.4824 1336.31 11.7478 1336.36 11.9962C1336.42 12.2447 1336.51 12.4621 1336.63 12.6485C1336.76 12.8348 1336.92 12.9845 1337.13 13.0974C1337.33 13.2104 1337.58 13.2668 1337.87 13.2668C1338.22 13.2668 1338.55 13.1793 1338.84 13.0042C1339.14 12.8292 1339.4 12.5751 1339.62 12.2419C1339.83 11.9087 1340 11.5049 1340.12 11.0306C1340.25 10.5562 1340.31 10.0198 1340.31 9.42118C1340.31 9.13882 1340.28 8.86777 1340.23 8.608C1340.18 8.34823 1340.1 8.11953 1339.97 7.92188C1339.85 7.72423 1339.68 7.56894 1339.48 7.456C1339.28 7.34306 1339.02 7.28659 1338.72 7.28659C1338.24 7.28659 1337.85 7.42494 1337.53 7.70165C1337.22 7.97835 1336.96 8.32 1336.78 8.72659C1336.59 9.13318 1336.46 9.56235 1336.39 10.0141C1336.31 10.4659 1336.28 10.8612 1336.28 11.2ZM1339.17 4C1340.1 4 1340.91 4.12706 1341.61 4.38118C1342.3 4.6353 1342.88 4.98823 1343.34 5.44C1343.81 5.89177 1344.15 6.4367 1344.38 7.07482C1344.62 7.71294 1344.73 8.41035 1344.73 9.16706C1344.73 10.1384 1344.58 11.0701 1344.27 11.9624C1343.96 12.8546 1343.49 13.6423 1342.88 14.3256C1342.26 15.0089 1341.5 15.5539 1340.58 15.9605C1339.67 16.3671 1338.61 16.5704 1337.41 16.5704C1336.49 16.5704 1335.68 16.4489 1334.98 16.2061C1334.29 15.9633 1333.71 15.6188 1333.25 15.1727C1332.78 14.7266 1332.44 14.1929 1332.2 13.5718C1331.97 12.9506 1331.86 12.256 1331.86 11.488C1331.86 10.5054 1332.01 9.56518 1332.32 8.66729C1332.63 7.76941 1333.1 6.97318 1333.71 6.27859C1334.33 5.584 1335.09 5.03059 1336.01 4.61835C1336.92 4.20612 1337.98 4 1339.17 4ZM1349.88 16.3501H1345.66L1347.37 4.22024H1351.59L1349.88 16.3501ZM1362.66 4.22024H1366.74L1365.04 16.3501H1359.93L1357.05 8.86212L1356 16.3501H1351.9L1353.61 4.22024H1358.86L1361.64 11.4711L1362.66 4.22024Z" fill="#5E647A"/>
<path fill-rule="evenodd" clip-rule="evenodd" d="M1267.86 27.5047L1271.16 19.0352H1272.92L1276.22 27.5047H1274.41L1273.53 25.2442H1270.02L1269.14 27.5047H1267.86ZM1270.46 24.1169H1273.09L1271.78 20.7406L1270.46 24.1169ZM1284.23 27.167C1283.41 27.5333 1282.43 27.7164 1281.3 27.7164C1279.91 27.7164 1278.83 27.3253 1278.05 26.5433C1277.28 25.7612 1276.89 24.6701 1276.89 23.2699C1276.89 21.8431 1277.28 20.7453 1278.06 19.9766C1278.84 19.2079 1279.96 18.8235 1281.4 18.8235C1282.32 18.8235 1283.24 18.9322 1284.15 19.1497V20.5288C1283.12 20.1664 1282.25 19.9852 1281.56 19.9852C1280.66 19.9852 1279.97 20.2684 1279.49 20.835C1279.01 21.4015 1278.76 22.2055 1278.76 23.247C1278.76 24.2695 1279.02 25.0668 1279.54 25.6391C1280.06 26.2114 1280.79 26.4975 1281.72 26.4975C1282.55 26.4975 1283.39 26.2877 1284.23 25.868V27.167ZM1292.58 27.167C1291.76 27.5333 1290.78 27.7164 1289.65 27.7164C1288.26 27.7164 1287.18 27.3253 1286.4 26.5433C1285.63 25.7612 1285.24 24.6701 1285.24 23.2699C1285.24 21.8431 1285.63 20.7453 1286.41 19.9766C1287.19 19.2079 1288.3 18.8235 1289.75 18.8235C1290.67 18.8235 1291.59 18.9322 1292.5 19.1497V20.5288C1291.47 20.1664 1290.6 19.9852 1289.9 19.9852C1289.01 19.9852 1288.32 20.2684 1287.84 20.835C1287.35 21.4015 1287.11 22.2055 1287.11 23.247C1287.11 24.2695 1287.37 25.0668 1287.89 25.6391C1288.41 26.2114 1289.14 26.4975 1290.06 26.4975C1290.9 26.4975 1291.74 26.2877 1292.58 25.868V27.167ZM1294.12 27.5047V19.0352H1299.41V20.1969H1295.88V22.5603H1298.77V23.6934H1295.88V26.3029H1299.68V27.5047H1294.12ZM1301.16 27.5047V19.0352H1304.11C1305.14 19.0352 1305.87 19.2079 1306.31 19.5531C1306.75 19.8984 1306.98 20.4754 1306.98 21.2842C1306.98 22.1998 1306.68 22.9123 1306.09 23.4216C1305.5 23.9309 1304.68 24.1856 1303.62 24.1856H1302.88V27.5047H1301.16ZM1302.88 23.0239H1303.23C1303.83 23.0239 1304.31 22.8837 1304.65 22.6033C1305 22.3228 1305.18 21.9423 1305.18 21.4616C1305.18 20.6185 1304.64 20.1969 1303.57 20.1969H1302.88V23.0239ZM1310.44 27.5047V20.1969H1307.41V19.0352H1315.24V20.1969H1312.21V27.5047H1310.44ZM1316.43 27.5047V19.0352H1321.72V20.1969H1318.19V22.5603H1321.09V23.6934H1318.19V26.3029H1321.99V27.5047H1316.43ZM1323.47 27.5047V19.0352H1327.11C1328.43 19.0352 1329.43 19.3833 1330.13 20.0796C1330.83 20.7758 1331.18 21.7802 1331.18 23.0925C1331.18 24.4889 1330.81 25.5733 1330.07 26.3458C1329.33 27.1184 1328.29 27.5047 1326.96 27.5047H1323.47ZM1325.23 26.3029H1326.55C1327.47 26.3029 1328.17 26.0463 1328.62 25.5332C1329.08 25.0201 1329.3 24.2409 1329.3 23.1955C1329.3 22.3867 1329.12 21.7134 1328.76 21.1755C1328.5 20.8054 1328.2 20.5498 1327.85 20.4086C1327.49 20.2675 1326.97 20.1969 1326.29 20.1969H1325.23V26.3029ZM1335.79 27.5047V19.0352H1337.56V22.4745H1341.06V19.0352H1342.82V27.5047H1341.06V23.6419H1337.56V27.5047H1335.79ZM1344.94 27.5047V19.0352H1350.23V20.1969H1346.7V22.5603H1349.6V23.6934H1346.7V26.3029H1350.5V27.5047H1344.94ZM1351.98 27.5047V19.0352H1355.15C1356.87 19.0352 1357.73 19.7353 1357.73 21.1354C1357.73 21.6581 1357.58 22.134 1357.29 22.5632C1357 22.9924 1356.6 23.3214 1356.09 23.5503L1358.86 27.5047H1356.71L1354.61 24.0425H1353.64V27.5047H1351.98ZM1353.64 22.8808H1354.04C1355.32 22.8808 1355.96 22.3639 1355.96 21.33C1355.96 20.5746 1355.39 20.1969 1354.25 20.1969H1353.64V22.8808ZM1360.06 27.5047V19.0352H1365.36V20.1969H1361.83V22.5603H1364.72V23.6934H1361.83V26.3029H1365.63V27.5047H1360.06Z" fill="#5E647A"/>
</g>
<g clip-path="url(#clip4_2877_6623)">
<path d="M1439.7 4H1443.79L1435.27 12.6304C1432.18 15.7559 1427.18 15.7559 1424.1 12.6304L1415.57 4H1419.67L1426.15 10.557C1428.07 12.5135 1431.21 12.5375 1433.17 10.612C1433.18 10.5948 1433.2 10.5742 1433.22 10.557L1439.7 4ZM1419.62 28H1415.52L1424.1 19.3146C1427.19 16.1891 1432.18 16.1891 1435.27 19.3146L1443.84 28H1439.75L1433.22 21.3914C1431.3 19.435 1428.15 19.4109 1426.2 21.3364C1426.18 21.3536 1426.16 21.3742 1426.15 21.3914L1419.62 28Z" fill="#5E647A"/>
<path d="M1493.69 4H1493.69C1494.74 4.02063 1495.72 4.22693 1496.63 4.61891C1497.56 4.98682 1498.38 5.49914 1499.08 6.15244C1499.78 6.80917 1500.33 7.58281 1500.73 8.46991C1501.12 9.34327 1501.32 10.2682 1501.32 11.2447C1501.32 12.2418 1501.11 13.1908 1500.69 14.0848C1500.3 14.9547 1499.73 15.7249 1499.01 16.3989C1498.31 17.0521 1497.48 17.5748 1496.53 17.9633H1496.53C1495.59 18.3347 1494.59 18.5203 1493.52 18.5203H1484.58V27.9175H1481.43V4L1493.69 4ZM1493.52 15.6218C1494.15 15.6218 1494.75 15.5083 1495.31 15.2814C1495.89 15.0544 1496.38 14.7415 1496.81 14.3427C1497.23 13.9473 1497.57 13.4762 1497.82 12.9467C1498.06 12.4206 1498.18 11.8533 1498.18 11.2447C1498.18 10.6567 1498.06 10.0997 1497.82 9.57364C1497.57 9.04756 1497.23 8.57307 1496.81 8.17765C1496.38 7.7788 1495.89 7.46934 1495.31 7.23897C1494.75 7.01203 1494.15 6.89857 1493.52 6.89857H1484.58V15.6218H1493.52Z" fill="#5E647A"/>
<path d="M1458.58 18.5719C1460.16 18.5719 1461.65 19.239 1462.64 20.3874L1469.14 27.9209H1473.18L1464.3 17.4785C1463.31 16.3163 1461.81 15.639 1460.22 15.639H1454.06V6.93639H1463C1463.63 6.93639 1464.23 7.04986 1464.8 7.27679C1465.37 7.50716 1465.87 7.82006 1466.29 8.21547L1466.3 8.22235C1466.72 8.59713 1467.06 9.04756 1467.3 9.58052C1467.54 10.1066 1467.66 10.6739 1467.66 11.286C1467.66 11.8946 1467.54 12.4619 1467.3 12.988C1467.15 13.294 1466.97 13.5828 1466.76 13.8476L1468.81 16.1341C1468.83 16.1066 1468.86 16.0791 1468.88 16.0516C1469.49 15.3983 1469.95 14.6728 1470.28 13.8682C1470.63 13.0567 1470.81 12.1937 1470.81 11.2825C1470.81 10.306 1470.61 9.37765 1470.21 8.5043C1469.81 7.61375 1469.26 6.84011 1468.56 6.18338C1467.86 5.53009 1467.05 5.01089 1466.12 4.61891C1465.2 4.22693 1464.22 4.02063 1463.17 4H1452.48C1452.05 4 1451.67 4.1616 1451.36 4.45387C1451.06 4.73238 1450.91 5.07622 1450.91 5.46819V27.9175H1454.06V18.5719H1458.58Z" fill="#5E647A"/>
</g>
<path d="M1585.96 8.38422H1586.94C1587.19 8.38422 1587.39 8.58785 1587.39 8.83803V17.6409C1587.39 20.422 1588.9 22.1791 1591.7 22.1791C1594.51 22.1791 1596.02 20.422 1596.02 17.6409V8.83803C1596.02 8.58785 1596.22 8.38422 1596.47 8.38422H1597.45C1597.7 8.38422 1597.91 8.58785 1597.91 8.83803V17.6642C1597.91 21.4519 1595.83 23.8664 1591.7 23.8664C1587.58 23.8664 1585.5 21.4286 1585.5 17.6875V8.83803C1585.5 8.58785 1585.7 8.38422 1585.96 8.38422ZM1600.8 20.3755C1600.95 20.1893 1601.23 20.1719 1601.4 20.3348C1602.42 21.3239 1603.94 22.1791 1605.87 22.1791C1608.58 22.1791 1609.45 20.7188 1609.45 19.5551C1609.45 17.7282 1607.61 17.2279 1605.6 16.6809C1603.16 16.0409 1600.44 15.3602 1600.44 12.3697C1600.44 9.86203 1602.68 8.15149 1605.67 8.15149C1607.81 8.15149 1609.51 8.80894 1610.76 9.96676C1610.95 10.1297 1610.96 10.4089 1610.81 10.5951L1610.21 11.3224C1610.07 11.5028 1609.8 11.5144 1609.63 11.3573C1608.52 10.3159 1607.05 9.83876 1605.53 9.83876C1603.7 9.83876 1602.4 10.822 1602.4 12.2533C1602.4 13.7835 1604.16 14.2373 1606.1 14.7609C1608.58 15.4242 1611.41 16.198 1611.41 19.3922C1611.41 21.6031 1609.9 23.8606 1605.8 23.8606C1603.35 23.8606 1601.5 22.9937 1600.24 21.7369C1600.08 21.574 1600.06 21.3122 1600.2 21.1319L1600.8 20.3755ZM1613.66 8.83803C1613.66 8.58785 1613.87 8.38422 1614.12 8.38422H1618.86C1623.58 8.38422 1626.66 11.6889 1626.66 16.0002C1626.66 20.3348 1623.58 23.5929 1618.86 23.5929H1614.12C1613.87 23.5929 1613.66 23.3893 1613.66 23.1391V8.83803ZM1618.86 21.9057C1622.56 21.9057 1624.7 19.2584 1624.7 16.0002C1624.7 12.7129 1622.62 10.0715 1618.86 10.0715H1615.56V21.9057H1618.86ZM1645.59 18.0773C1645.59 14.8831 1647.69 12.3057 1651.04 12.3057C1654.39 12.3057 1656.49 14.8831 1656.49 18.0773C1656.49 21.2715 1654.39 23.8722 1651.04 23.8722C1647.69 23.8722 1645.59 21.2657 1645.59 18.0773ZM1654.69 18.0773C1654.69 15.8431 1653.39 13.8359 1651.04 13.8359C1648.69 13.8359 1647.37 15.8431 1647.37 18.0773C1647.37 20.3348 1648.69 22.342 1651.04 22.342C1653.39 22.342 1654.69 20.3348 1654.69 18.0773ZM1658.13 9.57112C1658.13 8.93112 1658.65 8.43076 1659.27 8.43076C1659.91 8.43076 1660.43 8.93112 1660.43 9.57112C1660.43 10.2111 1659.91 10.7348 1659.27 10.7348C1658.65 10.7348 1658.13 10.2053 1658.13 9.57112ZM1658.88 12.5791H1659.68C1659.93 12.5791 1660.13 12.7828 1660.13 13.0329V23.1391C1660.13 23.3893 1659.93 23.5929 1659.68 23.5929H1658.88C1658.63 23.5929 1658.43 23.3893 1658.43 23.1391V13.0329C1658.43 12.7828 1658.63 12.5791 1658.88 12.5791ZM1669.99 16.39C1669.99 14.4526 1669 13.8359 1667.53 13.8359C1666.18 13.8359 1664.9 14.6562 1664.26 15.5464V23.1391C1664.26 23.3893 1664.06 23.5929 1663.81 23.5929H1663.01C1662.76 23.5929 1662.56 23.3893 1662.56 23.1391V13.0329C1662.56 12.7828 1662.76 12.5791 1663.01 12.5791H1663.81C1664.06 12.5791 1664.26 12.7828 1664.26 13.0329V14.1733C1665.04 13.2599 1666.54 12.3057 1668.18 12.3057C1670.49 12.3057 1671.7 13.4693 1671.7 15.8606V23.1333C1671.7 23.3835 1671.49 23.5871 1671.24 23.5871H1670.45C1670.2 23.5871 1669.99 23.3835 1669.99 23.1333V16.39H1669.99ZM1630.98 16.0002C1630.98 11.3224 1634.43 8.13403 1638.74 8.13403C1641.29 8.13403 1643.08 9.24531 1644.29 10.7697C1644.45 10.9617 1644.39 11.2468 1644.18 11.3689L1643.33 11.8402C1643.14 11.9508 1642.89 11.8984 1642.75 11.7297C1641.85 10.6126 1640.39 9.82712 1638.74 9.82712C1635.47 9.82712 1632.94 12.3813 1632.94 16.006C1632.94 19.6075 1635.47 22.1849 1638.74 22.1849C1640.4 22.1849 1641.86 21.4169 1642.75 20.2824C1642.89 20.1079 1643.13 20.0613 1643.33 20.166L1644.19 20.6373C1644.41 20.7595 1644.46 21.0504 1644.31 21.2424C1643.05 22.7784 1641.29 23.8722 1638.74 23.8722C1634.43 23.8664 1630.98 20.678 1630.98 16.0002Z" fill="#5E647A"/>
<path d="M1565.32 30.8363C1573.52 30.8363 1580.16 24.1938 1580.16 15.9999C1580.16 7.80604 1573.52 1.16357 1565.32 1.16357C1557.13 1.16357 1550.49 7.80604 1550.49 15.9999C1550.49 24.1938 1557.13 30.8363 1565.32 30.8363Z" fill="#5E647A"/>
<path d="M1562.54 26.3159C1562.54 26.665 1562.27 26.8628 1561.93 26.7581C1557.45 25.3268 1554.19 21.1202 1554.19 16.1573C1554.19 11.1944 1557.45 6.98787 1561.93 5.55659C1562.27 5.45187 1562.54 5.64968 1562.54 5.99878V6.85987C1562.54 7.09259 1562.36 7.36605 1562.14 7.44168C1558.59 8.74496 1556.05 12.1544 1556.05 16.1515C1556.05 20.1486 1558.59 23.5581 1562.14 24.8613C1562.36 24.9428 1562.54 25.2104 1562.54 25.4431V26.3159Z" fill="#23252F"/>
<path d="M1566.25 23.1098C1566.25 23.3658 1566.04 23.5753 1565.78 23.5753H1564.86C1564.6 23.5753 1564.39 23.3658 1564.39 23.1098V21.6437C1562.37 21.3702 1561.38 20.2357 1561.11 18.6938C1561.07 18.432 1561.27 18.1935 1561.54 18.1935H1562.6C1562.82 18.1935 1563.01 18.3506 1563.06 18.5717C1563.25 19.4909 1563.78 20.1949 1565.41 20.1949C1566.6 20.1949 1567.45 19.5258 1567.45 18.5251C1567.45 17.5244 1566.95 17.1462 1565.2 16.8553C1562.6 16.5062 1561.37 15.7207 1561.37 13.6844C1561.37 12.1135 1562.56 10.8917 1564.4 10.6298V9.19275C1564.4 8.93675 1564.61 8.72729 1564.86 8.72729H1565.79C1566.05 8.72729 1566.26 8.93675 1566.26 9.19275V10.6706C1567.75 10.9382 1568.7 11.7877 1569.01 13.1957C1569.07 13.4633 1568.86 13.7135 1568.58 13.7135H1567.61C1567.4 13.7135 1567.22 13.5738 1567.16 13.3702C1566.9 12.4742 1566.26 12.0902 1565.14 12.0902C1563.92 12.0902 1563.28 12.6837 1563.28 13.5157C1563.28 14.3942 1563.64 14.8364 1565.53 15.1098C1568.08 15.4589 1569.39 16.1862 1569.39 18.3564C1569.39 20.0029 1568.17 21.3353 1566.26 21.6437V23.1098H1566.25Z" fill="#23252F"/>
<path d="M1568.72 26.7577C1568.38 26.8624 1568.11 26.6646 1568.11 26.3155V25.4544C1568.11 25.1984 1568.26 24.9599 1568.51 24.8726C1572.06 23.5693 1574.6 20.1599 1574.6 16.1628C1574.6 12.1657 1572.06 8.75625 1568.51 7.45297C1568.29 7.37152 1568.11 7.10388 1568.11 6.87115V6.01006C1568.11 5.66097 1568.38 5.45734 1568.72 5.56788C1573.2 6.99915 1576.45 11.2057 1576.45 16.1686C1576.45 21.1199 1573.2 25.3206 1568.72 26.7577Z" fill="#23252F"/>
<g clip-path="url(#clip5_2877_6623)">
<path fill-rule="evenodd" clip-rule="evenodd" d="M1721.14 1.58837C1724.13 5.26312 1727.42 9.87963 1727.95 10.6264L1728.01 10.7121C1728.29 11.1082 1728.53 11.4028 1728.71 11.6264C1729.1 12.1229 1729.22 12.2701 1728.98 12.4055C1728.79 12.5146 1728.6 12.5506 1728.4 12.5506C1728.18 12.5506 1727.93 12.4431 1727.75 12.2691C1727.62 12.1461 1726.74 10.858 1725.55 8.98413C1724.64 7.55025 1723.87 6.36075 1723.85 6.34088C1723.8 6.29475 1723.8 6.29637 1725.46 9.28837C1726.5 11.1671 1727.21 12.5556 1727.21 12.6444C1727.21 12.8251 1727.16 12.9201 1726.94 13.1686C1726.57 13.5833 1726.4 14.049 1726.29 15.0129C1726.15 16.0934 1725.78 16.8568 1724.74 18.163C1724.14 18.9277 1724.04 19.0679 1723.88 19.3761C1723.69 19.7642 1723.64 19.9816 1723.62 20.4718C1723.6 20.99 1723.64 21.3248 1723.8 21.8201C1723.93 22.2539 1724.08 22.5404 1724.44 23.1131C1724.76 23.6075 1724.94 23.9749 1724.94 24.1186C1724.94 24.233 1724.96 24.2331 1725.45 24.1215C1726.62 23.8541 1727.57 23.3841 1728.11 22.808C1728.44 22.4514 1728.51 22.2545 1728.52 21.7659C1728.52 21.4462 1728.51 21.3794 1728.42 21.1955C1728.28 20.8961 1728.03 20.6474 1727.47 20.2616C1726.74 19.7561 1726.43 19.3493 1726.34 18.7896C1726.27 18.3305 1726.35 18.0065 1726.76 17.1493C1727.18 16.2619 1727.28 15.8837 1727.35 14.9893C1727.4 14.4114 1727.46 14.1835 1727.62 14.0006C1727.79 13.8099 1727.95 13.7452 1728.37 13.6866C1729.06 13.5912 1729.5 13.4104 1729.86 13.0735C1730.18 12.7812 1730.31 12.4995 1730.33 12.0755L1730.34 11.7542L1730.17 11.5475C1729.53 10.799 1720.71 1 1720.67 1C1720.66 1 1720.87 1.26475 1721.14 1.58837ZM1725.3 21.0581C1725.44 20.801 1725.36 20.4706 1725.12 20.3091C1724.9 20.1566 1724.54 20.2285 1724.54 20.4272C1724.54 20.4879 1724.58 20.532 1724.65 20.571C1724.78 20.6365 1724.79 20.7101 1724.69 20.8606C1724.59 21.0131 1724.6 21.1471 1724.71 21.2381C1724.9 21.385 1725.16 21.3042 1725.3 21.0581ZM1729.62 7.04063C1729.33 6.99613 1729.32 6.99088 1729.45 6.97025C1729.71 6.9305 1730.31 6.98462 1730.73 7.0845C1731.7 7.31775 1732.58 7.91525 1733.52 8.97625L1733.77 9.25813L1734.13 9.2C1735.64 8.95475 1737.18 9.14963 1738.46 9.74938C1738.81 9.91438 1739.37 10.2429 1739.44 10.3272C1739.46 10.3541 1739.5 10.5273 1739.53 10.7121C1739.63 11.3514 1739.58 11.8412 1739.39 12.2072C1739.28 12.4064 1739.27 12.4695 1739.35 12.64C1739.4 12.776 1739.56 12.8766 1739.72 12.8764C1740.03 12.876 1740.38 12.3544 1740.54 11.6287L1740.6 11.3405L1740.73 11.4839C1741.41 12.2708 1741.95 13.3439 1742.04 14.1076L1742.07 14.3068L1741.95 14.1257C1741.75 13.8142 1741.55 13.6021 1741.3 13.4311C1740.84 13.1227 1740.35 13.0179 1739.06 12.9491C1737.89 12.887 1737.24 12.7863 1736.58 12.5706C1735.47 12.2038 1734.91 11.7151 1733.59 9.9615C1733 9.18262 1732.64 8.7515 1732.27 8.40462C1731.45 7.61587 1730.65 7.20237 1729.62 7.0405V7.04063ZM1739.7 8.77975C1739.73 8.25775 1739.8 7.9135 1739.94 7.59912C1740 7.47463 1740.05 7.37288 1740.06 7.37288C1740.07 7.37288 1740.04 7.46463 1740.01 7.57688C1739.9 7.882 1739.89 8.29938 1739.96 8.78487C1740.05 9.40112 1740.1 9.48987 1740.74 10.1554C1741.04 10.4676 1741.4 10.8612 1741.52 11.0304L1741.75 11.3376L1741.52 11.118C1741.24 10.8494 1740.59 10.3255 1740.44 10.2507C1740.35 10.2005 1740.33 10.2014 1740.27 10.2612C1740.22 10.3164 1740.21 10.3994 1740.2 10.7913C1740.19 11.4023 1740.11 11.7945 1739.91 12.1865C1739.8 12.3986 1739.78 12.3534 1739.88 12.114C1739.95 11.9353 1739.96 11.8566 1739.96 11.2653C1739.96 10.0769 1739.82 9.79125 1739 9.30188C1738.79 9.17788 1738.45 8.999 1738.24 8.90438C1738.03 8.80988 1737.86 8.7275 1737.87 8.72137C1737.89 8.698 1738.69 8.9335 1739.01 9.0585C1739.49 9.24425 1739.57 9.26838 1739.63 9.246C1739.67 9.231 1739.69 9.11637 1739.7 8.77975ZM1729.31 7.86737C1729.24 8.78487 1729.59 10.0121 1730.17 10.8126C1730.61 11.4331 1731.3 11.9154 1731.81 11.9619C1732.15 11.9924 1732.25 11.8866 1732.1 11.6635C1731.89 11.3538 1731.63 10.8767 1731.56 10.6725C1731.52 10.5456 1731.43 10.1709 1731.36 9.83975C1731.12 8.70913 1730.88 8.26875 1730.34 7.93437C1730.14 7.8125 1729.71 7.653 1729.47 7.60763L1729.34 7.5835L1729.31 7.86737ZM1739.01 16.7701C1736.32 15.6761 1735.37 14.7265 1735.37 13.1243C1735.37 12.8884 1735.38 12.6955 1735.39 12.6955C1735.4 12.6955 1735.5 12.7734 1735.62 12.8685C1736.17 13.3104 1736.78 13.4991 1738.47 13.7484C1739.46 13.895 1740.02 14.0134 1740.54 14.1865C1742.18 14.7365 1743.19 15.8526 1743.43 17.373C1743.5 17.8147 1743.46 18.6431 1743.35 19.0798C1743.26 19.4246 1742.98 20.0461 1742.91 20.07C1742.89 20.0766 1742.87 19.9984 1742.86 19.8919C1742.84 19.321 1742.55 18.7652 1742.07 18.3489C1741.53 17.8755 1740.8 17.4988 1739.01 16.7701ZM1736.99 16.6497C1737.03 16.7634 1737.09 17.022 1737.12 17.2246C1737.34 18.5199 1736.66 19.5664 1735.35 19.9719C1735.22 20.0147 1734.67 20.1227 1734.14 20.2116C1733.07 20.3916 1732.6 20.5191 1732.12 20.7526C1731.78 20.9182 1731.37 21.1662 1731.39 21.1909C1731.4 21.1989 1731.48 21.1801 1731.56 21.1493C1732.17 20.9346 1732.84 20.8235 1733.86 20.7698C1734.27 20.7485 1734.73 20.7145 1734.89 20.6944C1735.8 20.5784 1736.43 20.2986 1736.92 19.7935C1737.19 19.5124 1737.36 19.2505 1737.49 18.8813C1737.57 18.6471 1737.58 18.56 1737.58 18.145C1737.58 17.7221 1737.57 17.6447 1737.48 17.3846C1737.36 17.0436 1737.23 16.7877 1737.05 16.5876L1736.92 16.4431L1736.99 16.6497ZM1738.35 19.4368C1737.99 18.6606 1737.91 17.9114 1738.11 17.2126C1738.13 17.1379 1738.16 17.0767 1738.18 17.0767C1738.2 17.0767 1738.29 17.1229 1738.37 17.1791C1738.53 17.2911 1738.86 17.4797 1739.74 17.9644C1740.84 18.5691 1741.47 19.0374 1741.89 19.5725C1742.26 20.041 1742.49 20.5746 1742.61 21.2254C1742.67 21.594 1742.63 22.481 1742.54 22.8521C1742.24 24.0225 1741.56 24.9417 1740.58 25.4783C1740.44 25.5568 1740.31 25.6213 1740.29 25.6216C1740.28 25.6219 1740.33 25.4878 1740.41 25.3234C1740.74 24.6281 1740.78 23.9519 1740.53 23.1992C1740.38 22.7384 1740.07 22.176 1739.44 21.2255C1738.71 20.1205 1738.53 19.8264 1738.35 19.4368ZM1731.63 21.9823C1730.5 22.1679 1729.26 22.7726 1728.26 23.624L1727.96 23.8775L1728.22 23.9188C1729.58 24.1336 1729.95 24.3243 1730.89 25.308C1731.44 25.874 1731.62 26 1732.07 26.1164C1732.73 26.2873 1733.39 25.9732 1733.61 25.376C1733.71 25.1091 1733.7 24.6672 1733.58 24.4452C1733.31 23.917 1732.52 23.7463 1732.13 24.1332C1731.81 24.4556 1731.9 24.9412 1732.3 25.0247C1732.39 25.044 1732.39 25.0399 1732.28 24.9888C1732.1 24.909 1732.03 24.7985 1732.03 24.6226C1732.03 24.2103 1732.49 23.9788 1732.93 24.1768C1733.24 24.3219 1733.37 24.5114 1733.37 24.8436C1733.37 25.3552 1732.94 25.7407 1732.44 25.6777C1732.17 25.644 1731.84 25.4707 1731.67 25.2699C1731.23 24.7646 1731.4 23.9671 1732.01 23.6611C1732.48 23.4282 1733.11 23.4856 1733.59 23.8062C1734.15 24.1747 1734.39 24.5115 1734.87 25.6168C1735.02 25.9766 1735.22 26.3818 1735.31 26.5169C1735.77 27.2041 1736.31 27.5411 1736.97 27.5411C1737.33 27.5411 1737.6 27.4744 1737.94 27.3018C1738.19 27.1734 1738.55 26.9295 1738.53 26.9034C1738.52 26.896 1738.42 26.9291 1738.29 26.977C1737.58 27.2591 1736.85 27.2398 1736.43 26.9271C1736.16 26.7304 1735.95 26.3384 1735.84 25.8481C1735.82 25.7633 1735.76 25.3885 1735.7 25.0152C1735.55 24.0693 1735.41 23.644 1735.08 23.156C1734.75 22.6567 1734.1 22.2377 1733.38 22.0506C1732.92 21.9339 1732.11 21.9021 1731.63 21.9823ZM1730.04 14.6681C1730.14 14.3036 1730.46 13.956 1730.78 13.8553C1730.99 13.7913 1731.41 13.8321 1731.61 13.9351C1732 14.1349 1732.28 14.5898 1732.22 14.9181C1732.15 15.3185 1731.51 15.6389 1730.77 15.6441C1730.39 15.6468 1730.25 15.5955 1730.11 15.401C1730.02 15.2805 1729.98 14.8905 1730.04 14.6681ZM1731.51 14.0779C1731.71 14.1975 1731.76 14.3744 1731.64 14.538C1731.57 14.6508 1731.32 14.7579 1731.15 14.7579C1730.88 14.7579 1730.59 14.5664 1730.59 14.391C1730.59 14.0386 1731.15 13.85 1731.51 14.0779ZM1789.42 15.0868C1788.81 13.0801 1789.81 11.4157 1791.93 10.881C1792.54 10.7275 1795.29 10.7968 1795.76 10.9775C1795.94 11.0436 1796.01 11.2977 1796.01 11.82C1796.01 12.2312 1796.06 12.7309 1796.11 12.93C1796.19 13.232 1796.15 13.2915 1795.83 13.2866C1795.54 13.2821 1795.37 13.1132 1795.12 12.6023C1794.73 11.786 1794.26 11.5265 1793.17 11.5235C1791.77 11.5194 1790.75 12.462 1790.91 13.6009C1791.02 14.342 1791.76 15.0712 1793.42 16.0737C1795 17.0274 1795.92 17.8116 1796.29 18.5142C1797.27 20.3927 1796.43 22.403 1794.25 23.4159C1793.12 23.9357 1791.24 23.9895 1789.92 23.5395L1789.07 23.2512V21.8955C1789.07 20.6677 1789.1 20.5395 1789.38 20.5395C1789.61 20.5395 1789.71 20.6943 1789.79 21.179C1790 22.3844 1790.91 23.1161 1792.22 23.1161C1793.49 23.1161 1794.39 22.4179 1794.73 21.1518C1794.87 20.6124 1794.85 20.4135 1794.56 19.8185C1794.21 19.1051 1793.62 18.6318 1791.59 17.4627C1790.47 16.814 1789.67 15.9466 1789.42 15.0868ZM1749.74 11.682C1749.46 11.682 1749.35 11.5916 1749.35 11.3599C1749.35 11.0531 1749.46 11.0379 1751.62 11.0379C1753.63 11.0379 1753.89 11.0681 1753.84 11.2989C1753.81 11.4426 1753.54 11.6417 1753.23 11.7417L1752.66 11.9236L1752.61 16.0302C1752.58 18.7705 1752.63 20.3512 1752.75 20.781C1753.12 22.0591 1754.23 22.7941 1755.81 22.7941C1756.91 22.7941 1757.55 22.5371 1758.36 21.7739C1759.22 20.9534 1759.36 20.1737 1759.36 16.1217C1759.36 12.1249 1759.29 11.795 1758.43 11.7121C1758.04 11.6742 1757.91 11.5834 1757.91 11.3497C1757.91 11.0585 1758.04 11.0379 1759.85 11.0379C1761.68 11.0379 1761.78 11.0557 1761.78 11.3599C1761.78 11.5584 1761.67 11.683 1761.5 11.6844C1760.75 11.691 1760.74 11.7622 1760.64 16.1449C1760.53 20.6962 1760.44 21.235 1759.52 22.3499C1759.25 22.6715 1758.62 23.1385 1758.11 23.3878C1757.28 23.7939 1757.01 23.8406 1755.57 23.8379C1754.23 23.8351 1753.81 23.7706 1753.15 23.4667C1752.17 23.0231 1751.54 22.449 1751.07 21.5863C1750.75 20.984 1750.72 20.6581 1750.64 16.5778C1750.56 11.9071 1750.52 11.682 1749.74 11.682ZM1764.84 11.682C1764.47 11.682 1764.37 11.6093 1764.37 11.3599C1764.37 11.058 1764.47 11.0386 1766.02 11.0511L1767.68 11.0642L1768.47 11.977C1768.9 12.479 1770.32 14.0494 1771.62 15.4666C1772.92 16.8837 1774.41 18.5324 1774.93 19.1303C1775.46 19.7283 1775.95 20.2174 1776.03 20.2174C1776.11 20.2174 1776.15 18.5284 1776.12 16.3381L1776.07 12.4589L1775.62 12.0705C1775.37 11.8568 1774.99 11.682 1774.77 11.682C1774.48 11.682 1774.38 11.5945 1774.38 11.3554C1774.38 11.0409 1774.46 11.0304 1776.6 11.0736C1778.41 11.1102 1778.82 11.1611 1778.82 11.3534C1778.82 11.4904 1778.59 11.6341 1778.28 11.6984C1777.98 11.759 1777.65 11.8924 1777.55 11.9948C1777.42 12.127 1777.35 13.8365 1777.32 17.8901L1777.27 23.5993H1776.8C1776.4 23.5993 1775.92 23.1455 1773.36 20.3381C1771.72 18.5444 1769.81 16.4126 1769.11 15.6009C1768.41 14.789 1767.78 14.1186 1767.72 14.1112C1767.53 14.0903 1767.57 21.3435 1767.77 22.032C1767.92 22.5685 1768.02 22.6609 1768.65 22.8304C1769.16 22.9668 1769.37 23.1051 1769.37 23.3106C1769.37 23.5745 1769.18 23.5993 1767.11 23.5993C1765.01 23.5993 1764.85 23.5782 1764.85 23.2974C1764.85 23.0917 1765 22.9651 1765.33 22.9002C1766.31 22.7036 1766.38 22.3915 1766.43 17.6203C1766.47 14.948 1766.42 13.0783 1766.31 12.6868C1766.13 11.9984 1765.67 11.682 1764.84 11.682ZM1781.77 11.682C1781.43 11.682 1781.32 11.6055 1781.32 11.3599C1781.32 11.0521 1781.43 11.0379 1783.74 11.0379C1786.05 11.0379 1786.16 11.0521 1786.16 11.3599C1786.16 11.5961 1786.05 11.682 1785.76 11.682C1785.54 11.682 1785.21 11.8299 1785.03 12.0106C1784.71 12.3296 1784.7 12.4881 1784.74 17.4188C1784.79 22.2319 1784.81 22.5104 1785.1 22.7267C1785.28 22.8524 1785.58 22.9551 1785.79 22.9551C1786.05 22.9551 1786.16 23.0481 1786.16 23.2773C1786.16 23.585 1786.05 23.5993 1783.74 23.5993C1781.48 23.5993 1781.32 23.579 1781.32 23.2979C1781.32 23.0711 1781.48 22.9711 1781.96 22.8943C1782.91 22.7419 1782.96 22.4299 1782.9 16.8625C1782.86 12.404 1782.83 12.126 1782.54 11.9104C1782.37 11.7847 1782.02 11.682 1781.77 11.682ZM1798.66 11.682C1798.44 11.682 1798.28 11.5595 1798.22 11.3599C1798.14 11.0485 1798.22 11.0379 1800.55 11.0379C1802.84 11.0379 1802.95 11.0521 1802.95 11.3599C1802.95 11.6074 1802.84 11.682 1802.49 11.682C1801.47 11.682 1801.49 11.8663 1803.03 16.0779C1803.82 18.2218 1804.58 20.2582 1804.72 20.6034L1804.99 21.231L1806.22 17.9461C1807.67 14.0795 1807.86 13.3645 1807.61 12.6593C1807.44 12.1678 1806.77 11.682 1806.27 11.682C1806.13 11.682 1806.02 11.5435 1806.02 11.3599C1806.02 11.0516 1806.13 11.0379 1808.52 11.0379C1810.92 11.0379 1811.03 11.0516 1811.03 11.3599C1811.03 11.5891 1810.92 11.682 1810.65 11.682C1809.97 11.682 1809.67 12.0431 1809.77 12.7445C1809.87 13.4668 1812.65 21.2279 1812.77 21.1117C1812.95 20.9229 1816.03 12.568 1816.03 12.2423C1816.03 11.8521 1815.76 11.682 1815.13 11.682C1814.85 11.682 1814.74 11.5932 1814.74 11.3599C1814.74 11.0557 1814.85 11.0379 1816.68 11.0379C1818.32 11.0379 1818.61 11.0759 1818.61 11.2879C1818.61 11.4254 1818.41 11.6079 1818.17 11.6932C1817.61 11.8857 1817.47 12.1054 1816.78 13.8848C1816.07 15.6962 1815.37 17.5075 1814.66 19.3189C1814.11 20.7278 1813.56 22.137 1813.01 23.5464C1812.96 23.6641 1812.7 23.7604 1812.42 23.7604H1811.91L1810.75 20.7407C1810.19 19.284 1809.63 17.8266 1809.07 16.3686C1808.59 15.0938 1808.55 15.0384 1808.36 15.4023C1808.26 15.6149 1807.49 17.5859 1806.66 19.7824L1805.15 23.7761L1804.59 23.728L1804.02 23.6799L1801.88 18.0559C1800.68 14.9138 1799.57 12.2663 1799.37 12.0569C1799.18 11.8506 1798.86 11.682 1798.66 11.682ZM1830.95 11.7502C1830.92 11.6891 1830.92 11.4692 1830.92 11.4692C1830.92 11.4692 1830.91 11.39 1830.95 11.3476C1830.98 11.3055 1830.99 11.3044 1831.11 11.2931L1831.11 11.293C1831.55 11.2515 1832.42 11.1816 1833.15 11.1497C1833.22 11.1469 1833.29 11.1435 1833.38 11.1397H1833.38C1834.18 11.1031 1835.62 11.0544 1836.61 11.1038C1838.5 11.1986 1839.85 12.1158 1840.31 13.6315C1840.77 15.1471 1840.53 16.5699 1839.9 17.4755C1839.27 18.3811 1838.22 19.1609 1836.47 19.1101C1835.02 19.0682 1834.64 18.7974 1834.33 18.581C1834.26 18.5352 1834.2 18.4919 1834.13 18.4538V20.3866C1834.15 21.7049 1834.16 22.338 1834.26 22.5724C1834.4 22.8879 1834.71 23.0823 1835.32 23.2313C1835.32 23.2313 1835.59 23.2955 1835.66 23.364C1835.73 23.4325 1835.73 23.5846 1835.73 23.5846C1835.73 23.5846 1835.74 23.7269 1835.69 23.7994C1835.63 23.8719 1835.52 23.8574 1835.52 23.8574L1832.84 23.8358L1831.23 23.8315C1831.23 23.8315 1831.06 23.8641 1830.99 23.7957C1830.93 23.7274 1830.94 23.585 1830.94 23.585C1830.94 23.585 1830.95 23.4316 1831.02 23.363C1831.1 23.2944 1831.37 23.2175 1831.37 23.2175C1832 23.0424 1832.27 22.8571 1832.41 22.5081C1832.52 22.2269 1832.52 21.705 1832.52 17.4471C1832.52 13.4092 1832.51 12.656 1832.42 12.4394C1832.29 12.1187 1831.94 12.0338 1831.45 11.9129H1831.45C1831.35 11.8878 1831.25 11.8616 1831.15 11.8345C1831.15 11.8345 1830.97 11.8115 1830.95 11.7502ZM1838.75 15.0451C1838.75 15.7072 1838.74 16.7439 1838.03 17.4065C1837.33 18.0691 1835.94 18.2505 1835 18.066C1834.71 18.0079 1834.54 17.9182 1834.4 17.8491L1834.39 17.8423L1834.15 17.7153L1834.14 15.3889C1834.13 13.9312 1834.14 12.9816 1834.18 12.8459C1834.21 12.0771 1835.34 11.9816 1835.89 12.0101C1838.26 12.0101 1838.68 14.0069 1838.75 15.0451ZM1823.42 11.1617L1823.22 11.239L1822.59 11.5659L1822.13 12.7034C1821.88 13.3291 1821.43 14.4776 1821.12 15.2557C1820.68 16.3636 1820.23 17.4703 1819.79 18.576C1819.67 18.8619 1819.33 19.7324 1819.02 20.5105C1818.71 21.2885 1818.4 22.029 1818.33 22.156L1818.29 22.224C1818.12 22.5499 1817.82 23.1161 1817.29 23.2017C1817.29 23.2017 1816.99 23.2305 1816.89 23.3375C1816.78 23.4446 1816.79 23.5321 1816.79 23.5321V23.667C1816.79 23.667 1816.8 23.7324 1816.86 23.7649C1816.92 23.7975 1817 23.7994 1817 23.7994L1818.95 23.7773H1820.96C1820.96 23.7773 1821.1 23.7939 1821.15 23.7484C1821.21 23.7029 1821.22 23.6354 1821.22 23.6354V23.4934C1821.22 23.4934 1821.2 23.3394 1821.12 23.2792C1821.04 23.2192 1820.74 23.1781 1820.74 23.1781C1819.93 23.0723 1819.8 22.4631 1819.9 21.9154C1819.94 21.6462 1820.27 20.6508 1820.63 19.6485L1820.76 19.3021L1822.86 19.286C1824.02 19.2771 1825.02 19.2831 1825.09 19.2994C1825.18 19.3225 1825.3 19.5826 1825.68 20.5091C1826.25 21.9129 1826.3 22.0839 1826.17 22.3465C1826.16 22.3625 1826.15 22.3801 1826.14 22.3991C1826.03 22.6531 1825.8 23.1466 1825.22 23.1969C1825.22 23.1969 1824.91 23.2075 1824.83 23.2994C1824.76 23.3914 1824.77 23.4971 1824.77 23.4971V23.6376C1824.77 23.6376 1824.8 23.72 1824.83 23.7526C1824.87 23.7852 1824.94 23.777 1824.94 23.777L1826.85 23.7633L1829.54 23.7631C1829.54 23.7631 1829.64 23.7744 1829.67 23.7339C1829.7 23.6933 1829.71 23.6455 1829.71 23.6455V23.4589C1829.71 23.4589 1829.7 23.3596 1829.64 23.3049C1829.59 23.2502 1829.24 23.1925 1829.24 23.1925C1828.8 23.1206 1828.58 22.7529 1828.41 22.479C1828.37 22.4091 1828.33 22.3454 1828.29 22.2943C1828.22 22.1899 1827.94 21.6179 1827.73 21.0678C1827.52 20.5176 1827.03 19.2749 1826.66 18.3062C1826.28 17.3376 1825.76 15.9864 1825.49 15.3036C1825.07 14.2075 1824.64 13.1113 1824.22 12.0149L1824.22 12.0146C1823.98 11.4066 1823.89 11.1613 1823.86 11.128C1823.77 11.0203 1823.51 11.128 1823.51 11.128C1823.51 11.128 1823.48 11.1405 1823.42 11.1617ZM1823.39 14.8269C1823.28 14.5532 1823.16 14.279 1823.06 14.0041C1822.88 13.5567 1822.81 13.4538 1822.76 13.5461C1822.74 13.5731 1822.63 13.8789 1822.51 14.2256C1821.73 16.4706 1821.38 17.4815 1821.31 17.672C1821.26 17.7917 1821.22 17.9151 1821.22 17.9463C1821.22 17.982 1821.86 18.0029 1822.94 18.0029C1823.89 18.0029 1824.66 17.9911 1824.66 17.9767C1824.66 17.9624 1824.58 17.7481 1824.48 17.5004C1824.37 17.2528 1824.12 16.6343 1823.92 16.1261C1823.74 15.6927 1823.56 15.2596 1823.39 14.8269Z" fill="#5E647A"/>
</g>
<g clip-path="url(#clip6_2877_6623)">
<path d="M1923.43 24.2548C1922.62 24.2548 1921.81 24.2313 1921.01 24.1775C1920.17 24.1209 1919.33 24.0041 1918.5 23.8281V9.48225C1919.18 9.35122 1919.93 9.26387 1920.75 9.19667C1921.56 9.12948 1922.31 9.09924 1923.02 9.09924C1923.96 9.09924 1924.82 9.16644 1925.61 9.30754C1926.4 9.43857 1927.08 9.67039 1927.65 9.99628C1928.22 10.3255 1928.67 10.7522 1928.99 11.2898C1929.31 11.8273 1929.47 12.4858 1929.47 13.2619C1929.47 14.4445 1928.9 15.3763 1927.76 16.0571C1928.71 16.4066 1929.34 16.9004 1929.68 17.5052C1930.02 18.12 1930.2 18.8087 1930.2 19.5747C1930.2 21.1303 1929.62 22.2927 1928.5 23.0722C1927.35 23.8718 1925.67 24.2548 1923.43 24.2548ZM1921.75 15.0828H1923.37C1924.4 15.0828 1925.12 14.9518 1925.57 14.6898C1926.01 14.4277 1926.23 14.001 1926.23 13.4198C1926.23 12.8184 1926 12.4018 1925.55 12.1599C1925.09 11.918 1924.42 11.7971 1923.55 11.7971C1923.26 11.7971 1922.96 11.7971 1922.63 11.8071C1922.3 11.8172 1922.01 11.8307 1921.75 11.8609C1921.75 11.8609 1921.75 15.0828 1921.75 15.0828ZM1921.75 17.6261V21.4494C1921.99 21.483 1922.25 21.5032 1922.54 21.5166C1922.82 21.5301 1923.14 21.5402 1923.48 21.5402C1924.48 21.5402 1925.28 21.399 1925.89 21.1135C1926.51 20.8279 1926.81 20.3038 1926.81 19.5344C1926.81 18.8558 1926.56 18.3619 1926.05 18.0763C1925.53 17.7807 1924.8 17.6396 1923.84 17.6396H1921.75V17.6261H1921.75Z" fill="#5E647A"/>
<path fill-rule="evenodd" clip-rule="evenodd" d="M1908.13 24.4769C1912.76 21.23 1913.88 14.8423 1910.64 10.2096C1909.95 9.23367 1909.1 8.38459 1908.13 7.70056H1915.83V24.4769H1908.13Z" fill="#5E647A"/>
<path fill-rule="evenodd" clip-rule="evenodd" d="M1892.01 16.0874C1892.01 19.4282 1893.64 22.5596 1896.38 24.4744H1888.67V7.70056H1896.37C1893.64 9.61541 1892.01 12.7468 1892.01 16.0874Z" fill="#5E647A"/>
<path d="M1902.25 24.4642C1906.88 24.4642 1910.63 20.7119 1910.63 16.0831C1910.63 11.4544 1906.88 7.70203 1902.25 7.70203C1897.62 7.70203 1893.87 11.4544 1893.87 16.0831C1893.87 20.7119 1897.62 24.4642 1902.25 24.4642Z" fill="#5E647A"/>
<path d="M1906.18 16.4313L1906.17 16.4227L1906.17 16.4212C1906.17 16.4125 1906.17 16.4034 1906.16 16.3939L1906.16 16.3932L1906.16 16.3925L1906.16 16.3917L1906.16 16.391L1906.16 16.3903L1906.16 16.3895L1906.16 16.3881C1906.06 16.0591 1905.87 15.7673 1905.6 15.5505L1905.6 15.5498C1905.59 15.5438 1905.59 15.5371 1905.58 15.531L1905.57 15.5229L1905.56 15.517L1905.56 15.5141L1905.55 15.5089L1905.54 15.506L1905.54 15.5007L1905.53 15.4979L1905.53 15.4919L1905.52 15.4894L1905.51 15.4834L1905.51 15.481L1905.5 15.4754L1905.5 15.473L1905.49 15.4654L1905.49 15.4623L1905.48 15.4566L1905.47 15.4535L1905.47 15.4478L1905.46 15.4447L1905.45 15.4391L1905.45 15.4359L1905.44 15.4296L1905.43 15.4264L1905.42 15.4205L1905.42 15.4173L1905.41 15.4114L1905.41 15.4082L1905.4 15.4023L1905.39 15.3991L1905.38 15.3931L1905.38 15.3904L1905.37 15.3845L1905.36 15.3817L1905.35 15.3761L1905.35 15.3734L1905.34 15.3671L1905.33 15.3644L1905.32 15.3581L1905.31 15.3553L1905.3 15.349L1905.3 15.3457L1905.29 15.3394L1905.28 15.3361L1905.27 15.3302L1905.26 15.3268L1905.25 15.3209L1905.24 15.3168L1905.24 15.316C1905.24 15.3127 1905.23 15.3101 1905.23 15.3066C1904.99 15.1834 1904.73 15.1016 1904.46 15.0647C1904.54 14.9842 1904.6 14.8981 1904.67 14.8072L1904.68 14.7925L1904.68 14.7921L1904.68 14.785L1904.69 14.7753L1904.69 14.7708L1904.7 14.7611L1904.7 14.7566L1904.71 14.7469L1904.71 14.7424L1904.72 14.7326L1904.72 14.7281L1904.72 14.7184L1904.73 14.7139L1904.73 14.7046L1904.74 14.7001L1904.74 14.6908L1904.74 14.6866L1904.75 14.6773L1904.75 14.6732L1904.76 14.6639L1904.76 14.6598L1904.76 14.6508L1904.77 14.6467L1904.77 14.6378L1904.77 14.6337L1904.78 14.6248L1904.78 14.6206L1904.78 14.6124L1904.79 14.6083L1904.79 14.6L1904.79 14.596L1904.8 14.5881L1904.8 14.584L1904.81 14.5762L1904.81 14.5725L1904.81 14.5647L1904.81 14.5609L1904.82 14.5531L1904.82 14.5494L1904.82 14.5416L1904.82 14.5379L1904.83 14.5305L1904.83 14.5267L1904.83 14.5193L1904.83 14.5155L1904.84 14.5081L1904.84 14.5044L1904.84 14.4958L1904.85 14.4847C1904.85 14.4761 1904.86 14.4679 1904.86 14.4594L1904.86 14.459C1904.97 14.1759 1905 13.8648 1904.94 13.5662L1904.94 13.5655L1904.94 13.564L1904.94 13.5633L1904.94 13.5626L1904.93 13.5618L1904.93 13.5611L1904.93 13.5604L1904.93 13.5596C1904.93 13.5513 1904.93 13.543 1904.93 13.5348V13.533L1904.93 13.5323L1904.93 13.5315L1904.93 13.5308L1904.93 13.5315L1904.92 13.5251C1904.92 13.5134 1904.92 13.5017 1904.91 13.4898C1904.91 13.4781 1904.91 13.466 1904.91 13.4548L1904.9 13.4469L1904.9 13.4454C1904.9 13.4374 1904.9 13.4294 1904.89 13.4214L1904.89 13.4207L1904.89 13.42L1904.89 13.4192L1904.89 13.4185L1904.89 13.4178L1904.89 13.417L1904.89 13.4163C1904.8 13.1235 1904.63 12.8639 1904.39 12.6711L1904.39 12.6704C1904.39 12.6648 1904.38 12.6594 1904.37 12.6538L1904.36 12.6467L1904.35 12.6415L1904.35 12.6386L1904.34 12.6337L1904.34 12.6309L1904.33 12.6259L1904.33 12.6231L1904.32 12.6188L1904.32 12.6159L1904.31 12.6107L1904.31 12.6078L1904.3 12.6026L1904.3 12.5997L1904.29 12.5945L1904.29 12.592L1904.28 12.5868L1904.28 12.5843L1904.27 12.579L1904.26 12.5766L1904.26 12.5717L1904.25 12.5693L1904.24 12.5644L1904.24 12.562L1904.23 12.557L1904.23 12.5546L1904.22 12.5497L1904.22 12.5473L1904.21 12.5417L1904.2 12.5393L1904.19 12.5336L1904.19 12.5312L1904.18 12.526L1904.18 12.5235L1904.17 12.5183L1904.16 12.5151L1904.15 12.5099L1904.15 12.5067L1904.14 12.5015L1904.13 12.4983L1904.13 12.4924L1904.12 12.4896L1904.11 12.4837L1904.1 12.4809L1904.09 12.4754L1904.09 12.4726L1904.08 12.467L1904.07 12.4637L1904.07 12.4629L1904.06 12.4546C1903.6 12.2167 1903.02 12.1451 1902.43 12.2954L1902.28 12.3344L1901.89 10.8356L1901 11.0642L1901.39 12.5572L1900.67 12.7402L1900.29 11.2516L1899.4 11.4803L1899.78 12.9732L1897.94 13.4467L1898.18 14.3979L1898.93 14.2076C1899.17 14.1444 1899.42 14.2921 1899.48 14.5374V14.5381L1900.51 18.5409C1900.56 18.7047 1900.46 18.8716 1900.29 18.9138L1899.64 19.0809L1899.68 20.2123L1901.52 19.7401L1901.91 21.2304L1902.8 21.001L1902.42 19.5073L1903.13 19.3243L1903.51 20.8178L1904.4 20.5884L1904.02 19.0889C1904.17 19.0495 1904.3 19.0159 1904.39 18.9926C1905.05 18.8232 1905.58 18.4364 1905.91 17.9545L1905.92 17.9384L1905.92 17.938L1905.92 17.9305L1905.93 17.9193L1905.93 17.9137L1905.94 17.9025L1905.94 17.8969L1905.95 17.886L1905.95 17.8804L1905.96 17.8696L1905.96 17.8644L1905.97 17.8535L1905.97 17.8483L1905.98 17.8375L1905.98 17.8322L1905.99 17.8218L1905.99 17.8166L1905.99 17.8061L1906 17.8009L1906 17.7912L1906.01 17.7859L1906.01 17.7762L1906.01 17.771L1906.02 17.7616L1906.02 17.7564L1906.03 17.7471L1906.03 17.7418L1906.04 17.7325L1906.04 17.7277L1906.04 17.7184L1906.04 17.7135L1906.05 17.7046L1906.05 17.7005L1906.06 17.6915L1906.06 17.6874L1906.06 17.6784L1906.07 17.6743L1906.07 17.6653L1906.07 17.6612L1906.08 17.6523L1906.08 17.6481L1906.08 17.6392L1906.09 17.6351L1906.09 17.6265L1906.09 17.6224L1906.1 17.6138L1906.1 17.6101L1906.1 17.6005L1906.11 17.5882C1906.11 17.5786 1906.12 17.5696 1906.12 17.5603L1906.12 17.5592C1906.25 17.2408 1906.28 16.8909 1906.21 16.555L1906.21 16.5544L1906.21 16.5536L1906.21 16.5528L1906.21 16.5521L1906.21 16.5514L1906.2 16.5507L1906.2 16.5499L1906.2 16.5492C1906.2 16.5402 1906.2 16.5311 1906.2 16.5219V16.52L1906.2 16.5193L1906.2 16.5186L1906.2 16.5178L1906.2 16.5171L1906.2 16.5164L1906.2 16.5156L1906.19 16.5149L1906.19 16.5141L1906.19 16.5134L1906.19 16.5127L1906.19 16.5119L1906.19 16.5112L1906.19 16.5105L1906.19 16.5076C1906.19 16.4945 1906.18 16.481 1906.18 16.4682C1906.18 16.4606 1906.18 16.4468 1906.18 16.4313ZM1900.94 13.7534C1901.09 13.7143 1901.72 13.5563 1901.93 13.5024C1902.26 13.4179 1902.58 13.4507 1902.83 13.5729L1902.84 13.5767L1902.85 13.5785L1902.85 13.5812L1902.85 13.5826L1902.86 13.5854L1902.86 13.5868L1902.87 13.5896L1902.87 13.591L1902.88 13.5937L1902.88 13.5951L1902.88 13.5979L1902.89 13.5993L1902.89 13.6021L1902.89 13.6035L1902.9 13.6062L1902.9 13.6076L1902.91 13.6104L1902.91 13.6118L1902.91 13.6146L1902.92 13.616L1902.92 13.6191L1902.92 13.6205L1902.93 13.6237L1902.93 13.6251L1902.94 13.6283L1902.94 13.6297L1902.94 13.6321L1902.95 13.6335L1902.95 13.6359L1902.95 13.6373L1902.96 13.6398L1902.96 13.6412L1902.96 13.6436L1902.97 13.645L1902.97 13.6474L1902.97 13.6492L1902.98 13.6516L1902.98 13.6527L1902.98 13.6552L1902.98 13.6562L1902.99 13.6586L1902.99 13.6597L1902.99 13.6621L1902.99 13.6632L1903 13.6661L1903 13.6671L1903 13.6696L1903.01 13.6729C1903.01 13.6754 1903.02 13.679 1903.02 13.6814C1903.15 13.7795 1903.25 13.9162 1903.29 14.072L1903.29 14.0741C1903.3 14.0781 1903.3 14.0829 1903.3 14.0869L1903.3 14.0876L1903.3 14.0919C1903.3 14.0987 1903.31 14.1039 1903.31 14.1105C1903.31 14.1171 1903.31 14.1238 1903.31 14.1306L1903.31 14.135L1903.31 14.1358C1903.31 14.1402 1903.31 14.1447 1903.32 14.1489L1903.32 14.151C1903.35 14.3102 1903.33 14.4759 1903.27 14.6244L1903.26 14.6378L1903.26 14.6442L1903.26 14.6483L1903.25 14.6505L1903.25 14.6542L1903.25 14.6564L1903.25 14.6605L1903.25 14.6627L1903.25 14.6668L1903.25 14.6691L1903.24 14.6732L1903.24 14.6754L1903.24 14.6795L1903.24 14.6817L1903.24 14.6858L1903.24 14.688L1903.23 14.6921L1903.23 14.6947L1903.23 14.6988L1903.23 14.7015L1903.23 14.7056L1903.23 14.7082L1903.22 14.7123L1903.22 14.715L1903.22 14.7194L1903.22 14.7221L1903.21 14.7266L1903.21 14.7292L1903.21 14.7336L1903.21 14.7363L1903.2 14.7408L1903.2 14.7434L1903.2 14.7479L1903.2 14.7505L1903.2 14.755L1903.19 14.7576L1903.19 14.7621L1903.19 14.7647L1903.19 14.7692L1903.18 14.7718L1903.18 14.7767L1903.18 14.7794L1903.18 14.7843L1903.17 14.7869L1903.17 14.7918L1903.17 14.7944L1903.16 14.7993L1903.16 14.8027L1903.16 14.8102C1902.99 15.04 1902.72 15.2257 1902.39 15.3101C1902.19 15.3633 1901.56 15.5279 1901.41 15.567L1900.94 13.7534ZM1904.42 16.8225L1904.43 16.8268L1904.43 16.8276C1904.43 16.8327 1904.43 16.8367 1904.43 16.8418L1904.43 16.8425L1904.43 16.8433L1904.43 16.844L1904.43 16.8447C1904.47 17.0203 1904.44 17.2027 1904.36 17.3621L1904.35 17.3766L1904.35 17.3834L1904.34 17.3886L1904.34 17.3912L1904.34 17.3954L1904.34 17.398L1904.34 17.4021L1904.34 17.4047L1904.33 17.4092L1904.33 17.4118L1904.33 17.4163L1904.33 17.4189L1904.32 17.4234L1904.32 17.4261L1904.32 17.4305L1904.32 17.4332L1904.31 17.4377L1904.31 17.4403L1904.31 17.4448L1904.31 17.4474L1904.3 17.4519L1904.3 17.4545L1904.3 17.459L1904.3 17.4616L1904.3 17.4661L1904.29 17.4687L1904.29 17.4736L1904.29 17.4763L1904.28 17.4812L1904.28 17.4837L1904.28 17.4894L1904.28 17.492L1904.28 17.4976L1904.27 17.5002L1904.27 17.5058L1904.27 17.5088L1904.27 17.5144L1904.26 17.5174L1904.26 17.5234L1904.26 17.5264L1904.25 17.5324L1904.25 17.5354L1904.25 17.5414L1904.24 17.5444L1904.24 17.5504L1904.24 17.5534L1904.23 17.5594L1904.23 17.5631L1904.22 17.5714C1904.02 17.8258 1903.7 18.035 1903.31 18.1352C1903.07 18.1988 1902.32 18.3932 1902.14 18.4394L1901.64 16.4695C1901.82 16.4225 1902.56 16.2354 1902.81 16.1719C1903.2 16.0717 1903.58 16.1001 1903.88 16.2266L1903.89 16.2307L1903.89 16.2328L1903.9 16.2355L1903.9 16.2365L1903.91 16.2396L1903.91 16.2406L1903.92 16.2437L1903.92 16.2447L1903.93 16.2478L1903.93 16.2492L1903.94 16.2523L1903.94 16.2537L1903.95 16.2568L1903.95 16.2582L1903.96 16.2613L1903.96 16.2627L1903.96 16.2654L1903.97 16.2668L1903.97 16.2696L1903.97 16.271L1903.98 16.2738L1903.98 16.2752L1903.99 16.2779L1903.99 16.2793L1903.99 16.2821L1904 16.2835L1904 16.2863L1904 16.2877L1904.01 16.2904L1904.01 16.2918L1904.02 16.2946L1904.02 16.296L1904.03 16.2988L1904.03 16.3001L1904.03 16.3033L1904.04 16.3047L1904.04 16.3081L1904.04 16.3094L1904.05 16.3126L1904.05 16.314L1904.05 16.3174L1904.06 16.3188L1904.06 16.3219L1904.06 16.3233L1904.07 16.3258L1904.07 16.3272L1904.08 16.3303L1904.08 16.3346C1904.09 16.3377 1904.09 16.3405 1904.1 16.3437C1904.24 16.4441 1904.35 16.5917 1904.41 16.7624L1904.41 16.7653C1904.41 16.77 1904.41 16.774 1904.41 16.7787L1904.41 16.7795L1904.42 16.7838C1904.42 16.7903 1904.42 16.7969 1904.42 16.8041C1904.42 16.8049 1904.43 16.8129 1904.42 16.8229L1904.42 16.8225Z" fill="#18153A"/>
</g>
<defs>
<clipPath id="clip0_2877_6623">
<rect width="114" height="24" fill="white" transform="translate(-104 4)"/>
</clipPath>
<clipPath id="clip1_2877_6623">
<rect width="113.723" height="24" fill="white" transform="translate(358.234 4)"/>
</clipPath>
<clipPath id="clip2_2877_6623">
<rect width="120" height="24" fill="white" transform="translate(1071.27 4)"/>
</clipPath>
<clipPath id="clip3_2877_6623">
<rect width="128.25" height="24" fill="white" transform="translate(1239.27 4)"/>
</clipPath>
<clipPath id="clip4_2877_6623">
<rect width="85.8" height="24" fill="white" transform="translate(1415.52 4)"/>
</clipPath>
<clipPath id="clip5_2877_6623">
<rect width="120" height="30" fill="white" transform="translate(1720.67 1)"/>
</clipPath>
<clipPath id="clip6_2877_6623">
<rect width="135.469" height="17" fill="white" transform="translate(1888.67 7.5)"/>
</clipPath>
</defs>
</svg>
