<svg width="145" height="56" viewBox="0 0 145 56" fill="none" xmlns="http://www.w3.org/2000/svg">
<g filter="url(#filter0_d_3804_6598)">
<path d="M64.0982 21L62.9712 17.757H56.1172L54.9902 21H52.1152L57.9572 4.90002H61.1312L66.9502 21H64.0982ZM56.9912 15.273H62.0972L59.5442 8.00503L56.9912 15.273Z" fill="white"/>
<path d="M75.0065 4.90002C77.2145 4.90002 79.0469 5.67436 80.5035 7.22302C81.9755 8.77169 82.7115 10.6807 82.7115 12.95C82.7115 15.204 81.9755 17.113 80.5035 18.677C79.0469 20.2257 77.2145 21 75.0065 21H68.6815V4.90002H75.0065ZM75.0065 18.47C76.5245 18.47 77.7589 17.9487 78.7095 16.906C79.6755 15.8634 80.1585 14.5447 80.1585 12.95C80.1585 11.34 79.6755 10.0214 78.7095 8.99403C77.7589 7.95136 76.5245 7.43003 75.0065 7.43003H71.3265V18.47H75.0065Z" fill="white"/>
<path d="M87.7679 18.47H94.8979V21H85.1229V4.90002H94.7829V7.43003H87.7679V11.616H94.2079V14.123H87.7679V18.47Z" fill="white"/>
<path d="M109.164 21H106.151L102.609 15.181L99.0672 21H96.0542L101.114 12.72L96.3532 4.90002H99.3432L102.609 10.259L105.875 4.90002H108.888L104.127 12.72L109.164 21Z" fill="white"/>
<path d="M61.2227 47.299C58.8 47.299 56.7914 46.5016 55.1967 44.907C53.602 43.297 52.8047 41.3113 52.8047 38.95C52.8047 36.5886 53.602 34.6106 55.1967 33.016C56.7914 31.406 58.8 30.601 61.2227 30.601C62.6794 30.601 64.021 30.946 65.2477 31.636C66.4897 32.326 67.4557 33.2613 68.1457 34.442L65.8457 35.776C65.4164 34.9786 64.7877 34.35 63.9597 33.89C63.147 33.4146 62.2347 33.177 61.2227 33.177C59.5054 33.177 58.11 33.7213 57.0367 34.81C55.9787 35.8986 55.4497 37.2786 55.4497 38.95C55.4497 40.6213 55.9787 42.0013 57.0367 43.09C58.11 44.1786 59.5054 44.723 61.2227 44.723C62.2347 44.723 63.1547 44.493 63.9827 44.033C64.8107 43.5576 65.4317 42.9213 65.8457 42.124L68.1457 43.435C67.471 44.6156 66.5127 45.5586 65.2707 46.264C64.044 46.954 62.6947 47.299 61.2227 47.299Z" fill="white"/>
<path d="M80.7188 47L79.5918 43.757H72.7378L71.6108 47H68.7358L74.5778 30.9H77.7518L83.5708 47H80.7188ZM73.6118 41.273H78.7178L76.1648 34.005L73.6118 41.273Z" fill="white"/>
<path d="M91.2361 30.9C92.7541 30.9 94.0191 31.406 95.0311 32.418C96.0584 33.43 96.5721 34.6873 96.5721 36.19C96.5721 37.6773 96.0584 38.9346 95.0311 39.962C94.0191 40.974 92.7541 41.48 91.2361 41.48H87.9471V47H85.3021V30.9H91.2361ZM91.2361 38.996C92.0181 38.996 92.6621 38.7353 93.1681 38.214C93.6741 37.6773 93.9271 37.0026 93.9271 36.19C93.9271 35.3773 93.6741 34.7103 93.1681 34.189C92.6621 33.6523 92.0181 33.384 91.2361 33.384H87.9471V38.996H91.2361Z" fill="white"/>
<path d="M98.8685 30.9H101.513V47H98.8685V30.9Z" fill="white"/>
<path d="M115.196 30.9V33.43H110.665V47H108.02V33.43H103.466V30.9H115.196Z" fill="white"/>
<path d="M126.494 47L125.367 43.757H118.513L117.386 47H114.511L120.353 30.9H123.527L129.346 47H126.494ZM119.387 41.273H124.493L121.94 34.005L119.387 41.273Z" fill="white"/>
<path d="M133.722 44.47H140.277V47H131.077V30.9H133.722V44.47Z" fill="white"/>
<path fill-rule="evenodd" clip-rule="evenodd" d="M5.01312 32.9999C4.45359 32.9999 3.99631 32.5448 4.03496 31.9866C4.5698 24.2604 11.1756 18.1545 19.2461 18.1545H36V26.3113H19.2461C15.8047 26.3113 12.9544 28.7755 12.4547 31.9906C12.3687 32.5435 11.9234 32.9999 11.3638 32.9999H5.01312Z" fill="#535FE6"/>
<path fill-rule="evenodd" clip-rule="evenodd" d="M4 31.6902C4 20.3885 13.3762 11.2267 24.9424 11.2267H36V19.4121H24.9424C18.0027 19.4121 12.377 24.9092 12.377 31.6902V31.9868C12.377 32.5463 11.9234 32.9999 11.3638 32.9999H5.01312C4.45359 32.9999 4 32.5463 4 31.9868V31.6902Z" fill="#4452EE"/>
<path fill-rule="evenodd" clip-rule="evenodd" d="M4 30.3046C4 18.675 13.3762 9.24731 24.9424 9.24731H36V17.6702H24.9424C18.0027 17.6702 12.377 23.3268 12.377 30.3046V31.9868C12.377 32.5463 11.9234 32.9999 11.3638 32.9999H5.01312C4.45359 32.9999 4 32.5463 4 31.9868V30.3046Z" fill="#1B1A1A"/>
<path fill-rule="evenodd" clip-rule="evenodd" d="M4 23.2681C4 11.8808 13.3762 2.64954 24.9424 2.64954H36V10.897H24.9424C18.0027 10.897 12.377 16.4357 12.377 23.2681V31.9869C12.377 32.5465 11.9234 33.0001 11.3638 33.0001H5.01312C4.45359 33.0001 4 32.5465 4 31.9869V23.2681Z" fill="#0F828C"/>
<path fill-rule="evenodd" clip-rule="evenodd" d="M4 21.9424C4 10.3762 13.3762 1 24.9424 1H34.9869C35.5464 1 36 1.45359 36 2.01312V9.37696H24.9424C18.0027 9.37696 12.377 15.0027 12.377 21.9424V31.9869C12.377 32.5464 11.9234 33 11.3638 33H5.01312C4.45359 33 4 32.5464 4 31.9869V21.9424Z" fill="#20C1CF"/>
<path fill-rule="evenodd" clip-rule="evenodd" d="M28.7651 33C28.2055 33 27.752 32.5464 27.752 31.9869V1H34.9863C35.5458 1 35.9994 1.45359 35.9994 2.01312V31.9869C35.9994 32.5464 35.5458 33 34.9863 33H28.7651Z" fill="#535FE6"/>
</g>
<defs>
<filter id="filter0_d_3804_6598" x="0" y="0" width="145" height="61" filterUnits="userSpaceOnUse" color-interpolation-filters="sRGB">
<feFlood flood-opacity="0" result="BackgroundImageFix"/>
<feColorMatrix in="SourceAlpha" type="matrix" values="0 0 0 0 0 0 0 0 0 0 0 0 0 0 0 0 0 0 127 0" result="hardAlpha"/>
<feOffset dy="4"/>
<feGaussianBlur stdDeviation="2"/>
<feComposite in2="hardAlpha" operator="out"/>
<feColorMatrix type="matrix" values="0 0 0 0 0 0 0 0 0 0 0 0 0 0 0 0 0 0 0.25 0"/>
<feBlend mode="normal" in2="BackgroundImageFix" result="effect1_dropShadow_3804_6598"/>
<feBlend mode="normal" in="SourceGraphic" in2="effect1_dropShadow_3804_6598" result="shape"/>
</filter>
</defs>
</svg>
