<svg width="18" height="18" viewBox="0 0 18 18" fill="none" xmlns="http://www.w3.org/2000/svg">
<path d="M0.551378 14.5727C-0.2195 11.05 -0.0110691 7.9201 0.165994 6.74436C0.292442 5.90472 4.76044 2.47155 7.30456 0.577338C8.33435 -0.189385 9.73468 -0.192852 10.7677 0.569434C13.3332 2.46249 17.845 5.90533 17.9006 6.74436C17.9023 6.77083 17.9042 6.79829 17.906 6.82673C17.9881 8.05905 18.1927 11.1294 17.5148 14.5727C17.1295 16.5298 15.9874 17.4133 13.6595 17.7041C13.4934 17.7248 13.3278 17.7444 13.1626 17.763C12.9419 17.7878 12.75 17.6138 12.75 17.3913V12.0855C12.75 10.8402 11.7426 9.8306 10.5 9.8306H7.49999C6.25735 9.8306 5.25 10.8402 5.25 12.0855L5.24999 17.3849C5.24999 17.6079 5.0573 17.782 4.83624 17.7564C4.69323 17.7398 4.55004 17.7224 4.40666 17.7041C2.07949 17.4072 0.976577 16.5158 0.551378 14.5727Z" fill="white"/>
<path d="M6.74999 17.5756C6.74999 17.7739 6.9038 17.9383 7.10143 17.9489C8.36434 18.0166 9.62395 18.017 10.898 17.9503C11.0959 17.9399 11.25 17.7754 11.25 17.5768L11.25 12.0855C11.25 11.6704 10.9142 11.3339 10.5 11.3339H7.49999C7.08578 11.3339 6.74999 11.6704 6.74999 12.0855L6.74999 17.5756Z" fill="white"/>
</svg>
